<svg version="1.0" xmlns="http://www.w3.org/2000/svg" width="853.33" height="1706.67" viewBox="0 0 640 1280"><path d="M369.5 9.7c-8 25.7-15.2 69.8-21.2 129.3-2.3 23.2-2.3 66.9.1 133.5 1.1 30.9 1.5 57.7 1.2 68-.7 18.6-4.5 73.7-5.1 74.3-.2.2-.7-1.3-1-3.4-9-55.8-24.5-102.9-41.2-125.5-5.6-7.6-15.3-14.7-15.3-11.2 0 3.3 10.6 87.3 12.6 100.2 6.3 40.4 6.7 51.3 2.9 70.1-1.5 7.6-2.5 15.6-2.5 21.1 0 12.1 3.2 35.7 8.1 59.5 5.9 28.6 6 34.8 1.4 77.9-3.1 29.8-4.3 37.8-8 53.5-6.3 26.6-10.1 45.4-14.4 71l-3.8 22.5-.7-11.5c-.3-6.3-1.1-20.3-1.6-31-3.7-70.9-16.4-190.5-30.5-288-5-34.3-13.3-87.2-13.9-87.7-1.6-1.6-2.2 236.7-.7 305.2.3 16.5.6 30.1.5 30.3-.1.2-1.2-.3-2.3-1-7.5-4.7-17 16.9-21.5 49.2-2.7 18.9-2.3 18.2-6.2 9.8-5.4-11.1-11.6-19.8-20.1-27.9-8.1-7.7-19.2-15.6-25.9-18.4-3.7-1.5-15.4-3.3-15.4-2.3 0 .3 2 5.2 4.4 10.9 15.1 36.2 39.3 129.3 48.6 186.9 9.5 59.6 15.9 183.1 17.6 342.2.6 51.5 1 62.8 2.1 62.8.7 0 1.3-1.1 1.3-2.5v-2.5h11.9c8.7 0 12 .3 12.4 1.2.3 1 .7 1 2-.1.9-.7 2.7-1.1 4-.7 1.7.4 2.5 0 3.2-1.6 1.2-2.5 3.5-3.6 3.5-1.6 0 .7.9 2.4 2 3.8 1.9 2.4 2 2.4 2 .4 0-2.1.6-2.2 14.3-2.9 22.1-1.1 94.5-2.1 101.2-1.4 3.9.5 6.2.3 6.7-.4.4-.7 1.1-.7 2.1.2.9.6 1.7.8 2 .4.3-.4 3-8.9 6.2-18.8 10.2-32.2 37.4-111.3 47.7-139 26-70 38.1-113.1 45.2-161 3.8-25.7 8.5-71 8.6-81.3v-3.4l-4.2 5.4c-12.7 16.1-31.5 29.8-41 29.8-3.3 0-4.5-.8-10-6.6-7.9-8.2-9.4-9.1-11.8-6.9-3.8 3.4-7.8 21-11 48.2-1.1 9.3-2.7 19.4-3.6 22.4-3.3 11-13.5 27.9-21.4 35.4l-4.2 4 .6-18.5c1.4-41.7 1.8-131.1.7-153.3-1-22.5-1-22.9 1.9-44.5 7.5-56.2 9-76.4 9-121.2.1-51.8-3.4-128.7-9-203-3.6-47-5.7-63.1-13-98.5-1.7-8.3-3.7-20.6-4.5-27.5-4.6-39.7-4.6-162.5-.2-318.3.3-8.1.4-14.7.2-14.7-.1 0-1.5 3.9-3 8.7z"/></svg>