<svg version="1.0" xmlns="http://www.w3.org/2000/svg" width="853.33" height="1706.67" viewBox="0 0 640 1280"><path d="M287.5 15.7c-.8 14.4 1.1 317.8 2 328.5l.5 5.3-1.4-4.5c-.8-2.5-4.2-16.2-7.6-30.5-14-58.5-32-117.6-53.2-175.5-14.8-40.1-23.9-60-30.2-65.9l-2.6-2.4v4.9c0 5.5 2.3 37.1 4.5 62.9 5.2 59.3 17.4 193.8 22 241.9 3.1 31.3 5.4 57.1 5.1 57.3-.2.2-1.6-1.3-3.2-3.4-5.7-7.7-25.2-26.7-33.9-33.3-4.9-3.7-12.1-8.5-15.9-10.6-6.8-3.7-6.9-3.7-6.4-1.3.9 4.2 15.7 59.4 23.5 87.4 10.2 36.9 13.6 51.1 18.8 78.5 10.4 54.8 13.7 80 13.8 105 0 15.7-.2 18.5-2.5 27-1.4 5.3-5.6 16.3-9.3 24.5-12.8 28.5-14.6 34.7-18.4 62-3.7 26.6-4.6 45-4.6 100 0 54.2.9 73.2 5.1 107 3 24.4 9.1 43.6 20.2 64 11 20.3 21.5 35.5 74.1 107.3l5.4 7.2 6.8 52.1c3.7 28.6 6.9 52.2 7.1 52.4.2.3 12.3-.4 26.9-1.5 32.8-2.5 32.9-2.5 32.9-.3 0 1.4.3 1.3 1.6-.5 1.1-1.6 2.5-2.2 5.4-2.2 3.7 0 4.3.5 12.1 10 4.6 5.5 8.6 10 8.9 10 .3 0 1.7-4.6 3.1-10.3l2.5-10.2 2.9.3c1.7.2 11.8 1.9 22.6 3.8s20.1 3.4 20.6 3.4 1.5-6.7 2.2-15.3c.6-8.3 2.5-32.1 4.1-52.7 9.1-115.7 15.2-221.4 19.2-331 2.4-68.4 1.4-208.7-1.9-243.5l-.6-7-6.8 31.5c-5.5 25.1-15.6 74.6-28.7 140.5-.5 2.3-1.1-24.1-1.5-61-1.2-123.7-11.4-288.7-28.3-457-5.5-54.8-16.7-153.7-18.1-159.5-1.4-5.5-4.8 41.7-7.8 108.5-2.6 57.8-6.5 156.5-6.5 166.1 0 5.6-.4 9.4-1 9.4-.5 0-1-1.8-1-4s-1.1-16-2.6-30.7c-8.8-92.6-21.3-166.6-42.3-251.1C309 44.6 297.3 9.1 290 2.5c-1.7-1.5-1.8-.9-2.5 13.2z"/></svg>