<svg version="1.0" xmlns="http://www.w3.org/2000/svg" width="1170.67" height="1706.67" viewBox="0 0 878 1280"><path d="M480.8 153.9c-8.7 2.9-17.2 8-31.1 19.1-16.3 12.9-20.3 17-25.5 26.8-7.7 14.5-7.3 20.5 2.8 49.2 11.3 32 13 37.4 16.5 50 7.7 28.7 15.2 68.2 17.6 92.5 1.5 15.3.6 58.2-1.5 72.2-.9 5.6-2.5 13.8-3.6 18.1-1.9 7.7-8.5 24.8-9.9 25.6-1.3.8-11.9-2.6-18.9-6-22.8-11.1-41.2-43.3-46.2-80.7-1.3-10.2-1.3-30.7.1-38.3 1.6-9.1 3.9-16.5 5-15.9.5.3.6 0 .3-.8-.7-2 4.6-14.8 5.9-14 .6.4.7.1.2-.6-.9-1.6 2.5-9.2 3.8-8.4.6.3.7.1.3-.5-.4-.7 1-5.6 3.2-10.9 5.6-13.9 6.5-18.9 6-30.2-.8-13.6-3.3-19.6-11.7-28.1-5.1-5.1-8.8-7.6-16.1-11.1-16.9-8.2-26.2-10.3-46-10.2-34.8.1-62.3 10.2-95.5 34.9-17.8 13.2-26.2 20.7-29.7 26.2-4.3 6.9-.9 14 23.3 48.3 20.5 29.3 23.9 36.3 34 69.6 11.7 38.9 17 64.7 15.6 76.4-.8 6.6-2.8 13-4.3 13.6-.7.3-3.8-.1-7-.7-9-1.9-13.1-6.4-21.5-23.9-10.8-22.4-15.3-27.2-27.8-30.1-16.6-3.9-41.4 5.6-69 26.4-18.6 14-29.1 25.1-43 45.8-19.4 28.9-23.8 44.6-16.5 59.5 5.9 12.1 15.5 19.1 35.5 25.7 16.9 5.6 20 5.6 44.9-1 12.8-3.4 30.2-3.9 35.7-1.1 10.1 5.3 13.7 22.6 8 38.6-1.4 4.1-3.1 7.9-3.7 8.5-1.5 1.5-15.2 1-24-1-4.1-.9-12.9-1.8-19.6-2.1-10.7-.5-12.9-.3-18.7 1.6-18.3 6.1-45.8 31.5-56.7 52.2-7.2 13.8-8.3 25.5-3.4 35.1 2.7 5.2 12.6 14.3 19.3 17.6 9.3 4.6 15.4 5.5 33.1 4.9 13.6-.5 17-1 28-4 20.3-5.6 30.1-8.8 37-11.9 7.4-3.4 13.2-3.9 20.5-1.9 4 1.2 6.5 2.9 12.1 8.5 9.8 9.8 11.9 15.6 11.1 29.9-.9 15.5-.3 14.8-14.3 17.5-11.8 2.3-12 2.3-23.3 10-14.9 10-25.9 19.6-28.8 25.1-2.8 5.3-3 12.7-.8 25.7 5.9 34.2 18 50.6 37.6 50.8 5.8.1 7.5-.4 15.1-4.1 13.1-6.5 25.6-15.3 32.8-22.9 5.5-5.9 7.5-9 12.9-20.9 8.5-18.6 22.7-47.2 30.3-60.9 5.9-10.6 19.3-30.1 25.8-37.6 3-3.4 3.2-3.4 4.6-1.5 2.1 2.9 3.3 7.9 4.4 18.8 1.2 12.3.2 22.9-4.5 46-6.3 31.5-9 37.8-24.4 57.7-12.5 16-14.2 18.9-16.5 27.7-3.2 12.2-1.1 34.8 4.6 50.1 5 13.4 16.6 26.8 27.8 32.1 7.6 3.6 18.4 5.5 26.4 4.7 11.9-1.2 26.2-10.7 47.6-31.7 4.7-4.5 8.8-8.3 9.2-8.3.3-.1 1-.5 1.5-1s.3-.6-.4-.2c-1.7.9-1.6.7.7-4.1 1.1-2.2 3.2-7.6 4.6-11.9 3.9-11.3 3.7-18.6-.9-34.4-5-17.2-6-24.5-5.2-37 .9-13.6 2.8-23.7 6.2-32.3l2.7-6.9 3.5.6c10.6 1.7 24.4 12.3 29.5 22.7 6.3 13.1 8.8 37.8 6.2 62.9-4.4 41.7-8 60.4-18.8 96-4.4 14.6-8.6 28.6-9.4 31.2-1.3 4.4-1.8 4.8-5.7 5.8-7.4 1.9-18.6 8.9-32 20.3-11.6 9.8-13.7 12.7-13.7 19.2 0 11.2 6.9 18.1 21 21.1 16.3 3.4 36.4-1.6 54.7-13.6 3.4-2.3 9.9-5.4 14.5-6.9 8.4-2.9 11.8-4.3 24.2-10 18.4-8.5 34.8-11.7 51.4-10.1 13.6 1.4 27.4 3.7 33.2 5.5 2.5.8 10.4 2.6 17.5 4 7.2 1.4 18.9 4.1 26 6 19.1 5 47.9 10.2 69.6 12.6 9.4 1 11.6 1 18-.6 10-2.4 18.5-6.4 23.9-11.2 2.5-2.2 5.4-4.3 6.5-4.7 1.1-.3 5.1-3.5 8.8-7 6.5-6.1 6.9-6.6 6.2-9.8-1.4-6.7-4.7-11.7-14.8-21.9-12-12.3-18.6-16.2-47.2-28.4-45.9-19.5-63.4-32.2-85.8-62-12-15.9-17.1-26.1-19.9-39.2-1.9-9-1.9-11-.9-25.3.7-9.6 1.6-15.9 2.4-16.7 3.3-3.3 25.3-3.2 52.7.1 24.4 3.1 54.1 1 70.6-4.7 4.4-1.6 22.5-15.1 31.5-23.4 3-2.9 5.9-5 6.4-4.5.5.4.5.1.1-.6-.9-1.4 1.2-4.5 2.4-3.7.5.3 1.2 0 1.6-.6.5-.8.3-.9-.6-.4-.8.5-1.1.3-.8-.6.3-.8 1-1.4 1.6-1.4.5 0 1.4-.4 1.9-.9.5-.6.2-.6-.6-.1-1.1.6-1.3.4-.6-1.1 5.7-13 6.7-22.1 4-34.9-2-9.3-9.6-24.4-14.5-28.9-12.1-10.9-21.9-10.9-58-.1-22.5 6.8-29.3 7.9-43.5 7.2-19-.9-32-6.5-38-16.2-2.8-4.6-3-5.4-3-15 0-12.1 1.2-14.8 7.7-16.6 5.8-1.5 47.5-10.3 66.8-14 33.4-6.4 42.6-9.8 59.2-22.1 28.2-20.9 39-34.3 47.4-59 4.9-14.4 5.4-22.3 2.1-35.8-4.7-19.2-10.1-31.9-20.5-47.5-8.5-12.9-16.9-20.6-28.4-25.9-19.9-9.3-30.2-8.9-51 2.1-27.1 14.2-62 50.3-85.6 88.5-20 32.4-33 51.2-42.6 61.5-4.7 5.1-7.1 6.7-13.9 9.6-27.6 11.5-51.1 12.6-69.9 3.1-7.8-3.9-17-13.9-21.8-23.7-9.2-18.8-9.1-30.3.3-44.4 8.7-13 11.6-15 38.2-27.1 48.6-22.1 63.3-30.4 92.5-52.2 10.7-8 24.5-18.1 30.5-22.5 38.5-27.6 65.3-51.9 77.5-70.1 2.9-4.4 5.6-7.9 6-7.9.5 0 1.2-.4 1.7-.9s.3-.6-.4-.2c-1.8 1-1.7.8 1.6-6.5 4.6-10.3 5.4-15.7 4.8-30.3-.6-16-1.9-20-10.2-32.6-10.6-16-22.3-26.4-32.8-29.2-6.5-1.7-18.1.7-29.1 6-9.5 4.6-25.9 16.6-35.6 26.2-19.5 19.3-30.8 47.5-37 93-3.2 23.1-9.1 46.6-15 59.7l-3 6.6-12.8-.6c-28.4-1.3-36.3-7.1-36.3-26.9-.1-23.4 15.2-101.3 26.2-134 8.7-25.8 17-42.8 39.2-79.7 7.9-13.1 16-27.7 18.2-32.4 2.1-4.8 4.1-8.5 4.4-8.3.3.2.7-.8.7-2.2.1-1.5.9-5.2 1.8-8.2 1-3 2-10.2 2.3-16 .5-9.6.3-11-2-16.7-3.8-9.4-9.2-16.9-19.7-27.3-19.3-19.3-37.2-32.6-51.1-38-7.4-2.9-9.7-3.4-19.9-3.7-9.2-.2-12.6.1-17.2 1.6zm9.9 21.7c3.5.9 6.2 1.9 5.9 2.1-.2.2-2.1 0-4.3-.6-4.1-1.2-23.5-1.5-29.6-.5-4.4.8-7.8 4-12.7 12.1-3.3 5.4-3.5 6.2-3.5 14.3.1 7.6.7 10.2 5.8 25.5 3.1 9.3 5.5 17.1 5.3 17.3-.3.2-3-7.4-6.1-17-6.1-18.4-7.6-27.2-5.6-34.4 1.4-5.2 8.3-15.9 11.3-17.5 7.1-4 20.7-4.5 33.5-1.3zm27.6 14.6c10.4 7.7 27.6 23.7 33.8 31.4 10.8 13.2 14.8 25.6 12.1 36.9-.8 3.2-.9 2.4-.5-4.1.9-12.6-2.5-20-16.1-35.8-7.7-9-26-25.1-36.1-31.8-4.9-3.3-9.2-6.3-9.5-6.6-1.7-1.8 10.6 5.7 16.3 10zm42.2 82.8c-1.5 4.4-4.8 12.2-7.4 17.3-4.9 9.6-16 28.7-16.8 28.7-.5 0 .4-1.7 6.3-11.5 6.9-11.8 15.9-30.6 18-38.1 1.1-3.5 2-6 2.2-5.4.2.5-.8 4.6-2.3 9zm-236.6 1c18 1.9 34.1 8.4 44.4 18 6.2 5.7 10.8 13.4 10.6 18-.1 2.3-.2 2.3-.9-.5-2.2-8.7-7.3-14.9-18.6-22.4-14.4-9.7-27.2-12.6-51.9-11.8-12.4.4-18.7 1.1-28 3.2-19.8 4.4-36.8 12-44.4 19.8-2.8 3-3.2 4-2.6 6.7.4 1.7 7.1 12.8 15 24.6 7.9 11.7 14.2 21.4 14 21.4-.7 0-19-26.5-24.7-35.9-3.2-5.3-5.8-10.7-5.8-12.2 0-6.1 15.9-16.4 34.5-22.2 20.8-6.5 39.2-8.6 58.4-6.7zm55.1 53.4c-1.1 5.8-6 20-6.6 19.4-.2-.2 1-4.6 2.6-9.7s3.3-12.7 3.7-16.9c.7-6.6.8-7.1 1.1-3.2.2 2.5-.2 7.2-.8 10.4zm156-5.4c-.6 1.1-1.3 2-1.6 2-.2 0 0-.9.6-2s1.3-2 1.6-2c.2 0 0 .9-.6 2zm-163.9 28.7c-1.2 2-1.4 1.4-.5-1.2.4-.9.9-1.4 1.1-1.1.3.2 0 1.3-.6 2.3zm-2 5c-1.2 2-1.4 1.4-.5-1.2.4-.9.9-1.4 1.1-1.1.3.2 0 1.3-.6 2.3zm282.1 24c10.5 5.6 25.9 23.9 30 35.8 1.4 3.9 1.7 8 1.6 19.5l-.2 14.5-.5-16c-.7-18.3-1.4-20.3-11.4-33.7-11.1-14.8-18.7-20-30.1-20.7-9.8-.5-16.6 1.2-20.3 5.2-6 6.4-11.4 16.3-17 30.7-1.7 4.7-3.2 8-3.3 7.3 0-2.3 6.2-17.9 10-25.1 2.2-4 5.5-9.4 7.5-12 3.2-4.1 4.5-5 10.8-6.9 9.1-2.9 15.7-2.5 22.9 1.4zM489.1 425c.5 0 .9-.5.9-1.2 0-.6.2-.9.4-.7.3.2-.7 4.5-2 9.4-1.3 5-2.2 7.2-1.9 5 .3-2.2.6-8.1.7-13 .1-5.2.3-7 .5-4.3s.8 4.8 1.4 4.8zm108.5 9.1c-1.3 5.2-2.7 11.6-3.1 14.2-.4 2.6-1 4.6-1.3 4.3-.2-.3.1-3.4.7-6.8 1.6-8.1 5.2-22 5.7-21.5.2.2-.7 4.6-2 9.8zm84.1 18.1c-.3.8-.6.5-.6-.6-.1-1.1.2-1.7.5-1.3.3.3.4 1.2.1 1.9zm-89 5.5c-.3 1-.5.4-.5-1.2 0-1.7.2-2.4.5-1.8.2.7.2 2.1 0 3zm83.4 7.6c-10.7 18.7-29.2 38-53.7 56.2-8.8 6.5-16.5 12.2-17.1 12.8-.7.5-1.3.7-1.3.5 0-.3 7.1-5.9 15.8-12.4 10.1-7.6 20.7-16.9 29.8-25.9 14.1-14 20.1-21.6 26.5-33.2 1.9-3.4 3.6-6 3.8-5.8.2.3-1.5 3.7-3.8 7.8zm-84.4-1.1c-.3.8-.6.5-.6-.6-.1-1.1.2-1.7.5-1.3.3.3.4 1.2.1 1.9zm-114.2 22.2c-.4 2-1.1 3.4-1.5 3.1-.4-.2-1.5 1.4-2.5 3.6s-2.2 4.2-2.7 4.5c-.4.3.9-3.1 3-7.4 2-4.4 3.8-7.8 4-7.7.2.2 0 1.9-.3 3.9zm-274 4c2.9 1.5 6.4 4.1 7.8 5.9 2.5 3.3 12.7 23 12.7 24.4-.1.5-2.4-3.7-5.3-9.2-9.3-17.9-13.5-21.4-27.2-22.2-10-.7-16.2.6-27 5.6-6.7 3.1-9.2 5-15.1 11.5-12 12.9-25.3 32.9-31.9 47.6-2.3 5-2.9 8-2.9 13 0 7.6 1.5 11.1 8.2 18.2 6 6.4 13.8 11 24.9 14.8 11.8 3.9 18.8 4.6 28.7 2.6 9.2-1.8 11.5-1.4 2.9.5-9.6 2.2-20.6 1.6-30.3-1.6-23-7.5-33.9-17.2-35.6-31.8-1.1-9.5 4.5-22.4 19.4-44.7 12.1-18 18.6-25.7 24.4-28.6 19.3-9.8 34.5-11.7 46.3-6zm272.2 7.8c-.3.8-.6.5-.6-.6-.1-1.1.2-1.7.5-1.3.3.3.4 1.2.1 1.9zm-1 6c-.3.8-.6.5-.6-.6-.1-1.1.2-1.7.5-1.3.3.3.4 1.2.1 1.9zm-16.7 7.2c0 .7-10.9 8.9-14.5 11-3 1.7-3 1.7-.6-.1 1.4-1 5.2-3.9 8.5-6.5 6.3-4.9 6.6-5.1 6.6-4.4zM288.5 524c-.6 1-10.8 8.4-16 11.6-5.1 3.1-1.9.3 7.3-6.3s9.7-6.9 8.7-5.3zm-61.5 2c.6 1.1.8 2 .6 2-.3 0-1-.9-1.6-2-.6-1.1-.8-2-.6-2 .3 0 1 .9 1.6 2zm5.5 7.7c2.1 2.7 2.8 3.9 1.6 2.8-2.3-1.9-6.6-7.5-5.9-7.5.2 0 2.1 2.1 4.3 4.7zm370.5 1.7c0 1-19.7 15-29 20.6-9.8 6-47.8 25-49.7 25-.4-.1 7.3-4.1 17.2-8.9 20.4-10.1 38.8-20.8 52-30.5 9.3-6.7 9.5-6.9 9.5-6.2zm-41.1 11.9c-3 2.9-8.4 7.1-12 9.5-3.5 2.4-4.8 3.1-2.9 1.5 1.8-1.5 7-5.8 11.5-9.5 4.4-3.6 8.2-6.7 8.5-6.7.3 0-2 2.3-5.1 5.2zm147.7 7.8c14.1 4.3 24.2 11.5 33.4 24 9.6 13 19.6 34.9 21.4 47.5.4 2.1-.5.2-1.9-4.4-6.4-20.8-16.2-38.7-27.2-49.5-12.8-12.7-24.5-18.2-38.5-18.1-6.5.1-8.7.5-14.1 3.2-12.6 6.2-27.1 22.3-46.9 52-11 16.6-14.2 21-11.8 16.2 5.7-11.3 28.7-42.9 42.8-58.8 7.3-8.1 7.9-8.6 17.2-11.9 8.2-2.9 16.6-3 25.6-.2zM516 585c-.8.5-1.9 1-2.5 1-.5 0-.3-.5.5-1s2-1 2.5-1c.6 0 .3.5-.5 1zm-36 18.4c0 .2-1.8 1.5-4 3-2.2 1.4-4 2.4-4 2.2 0-.5 7.1-5.6 7.7-5.6.2 0 .3.2.3.4zm-13 9c0 .2-.8 1-1.7 1.7-1.6 1.3-1.7 1.2-.4-.4 1.3-1.6 2.1-2.1 2.1-1.3zm-9 7c0 .2-.8 1-1.7 1.7-1.6 1.3-1.7 1.2-.4-.4 1.3-1.6 2.1-2.1 2.1-1.3zm164.1 11.3c-.5 1-1.7 2.7-2.6 3.8-1.6 1.9-1.7 1.9-.3-.5 2.6-4.6 2.9-5 3.4-5 .3 0 0 .8-.5 1.7zm143.6 4c-.3 1-.5.4-.5-1.2 0-1.7.2-2.4.5-1.8.2.7.2 2.1 0 3zm1 7.5c-.2 1.3-.4.5-.4-1.7-.1-2.2.1-3.2.4-2.3.2 1 .2 2.8 0 4zm-1 6.5c-.3 1-.5.4-.5-1.2 0-1.7.2-2.4.5-1.8.2.7.2 2.1 0 3zm-1 4.5c-.3.8-.6.5-.6-.6-.1-1.1.2-1.7.5-1.3.3.3.4 1.2.1 1.9zm-1.7 6.3c-.7 2-1.4 3.5-1.6 3.3-.2-.2.2-2.1.8-4.1.6-2 1.3-3.5 1.6-3.3.2.3-.1 2.1-.8 4.1zm-2.9 7.2c-1.2 2-1.4 1.4-.5-1.2.4-.9.9-1.4 1.1-1.1.3.2 0 1.3-.6 2.3zM231 665.3c0 .2-1 1.2-2.2 2.3l-2.3 1.9 1.9-2.3c1.8-2.1 2.6-2.7 2.6-1.9zm524.6 11.4c-5 9.4-12.1 18.1-16.3 19.8-5.2 2.2-5.2 1.9 0-1.6 5-3.3 11.9-11.9 16.3-20.4 1.6-3 3-5.2 3.2-5 .2.2-1.2 3.4-3.2 7.2zM595 670.4c0 .2-.8 1-1.7 1.7-1.6 1.3-1.7 1.2-.4-.4 1.3-1.6 2.1-2.1 2.1-1.3zm-371.6 2.7c-3.9 4.4-21.8 15.8-22.9 14.7-.2-.2 2.4-1.8 5.9-3.6 3.4-1.8 8.9-5.4 12.2-8.1 6.5-5.5 7.7-6.1 4.8-3zm363.6 6.5c-6.8 7-23.8 20.7-35 28.3-8 5.4-14.4 9.3-9 5.4 15.3-11 35.9-27.1 41.5-32.5 8.5-8.2 10-8.9 2.5-1.2zm-430 8.8c7.2 1.3 6.9 1.3-9.1.8l-16.6-.5-5.7 7.9c-15.5 21.8-16.5 34.2-3.8 45.5 7 6.1 11.3 7.9 21.7 9 8.4 1 36.5 0 46-1.6 1.7-.3-.1.4-4 1.5-10.8 3-29.8 4.6-39.7 3.1-14.1-1.9-25.7-8.9-31.5-18.8-5.3-9-1.5-24.2 9.8-39.4 2.8-3.8 5.8-7.3 6.7-7.9 2.4-1.3 17.3-1.1 26.2.4zm573.1 11.2c-2.5.8-6.1 1.6-8 1.9-2 .2-.7-.4 2.9-1.4 7.5-2.2 11.7-2.6 5.1-.5zM716 703c-1.4.4-3.4.8-4.5.8-1.6 0-1.5-.2.5-.8 1.4-.4 3.4-.8 4.5-.8 1.6 0 1.5.2-.5.8zm-8.3 1.6c-.3.3-1.2.4-1.9.1-.8-.3-.5-.6.6-.6 1.1-.1 1.7.2 1.3.5zm-5 1c-.3.3-1.2.4-1.9.1-.8-.3-.5-.6.6-.6 1.1-.1 1.7.2 1.3.5zm-5 1c-.3.3-1.2.4-1.9.1-.8-.3-.5-.6.6-.6 1.1-.1 1.7.2 1.3.5zM439.5 709c1 1.1 1.6 2 1.3 2-.3 0-1.3-.9-2.3-2-1-1.1-1.6-2-1.3-2 .3 0 1.3.9 2.3 2zm254.2-1.4c-.3.3-1.2.4-1.9.1-.8-.3-.5-.6.6-.6 1.1-.1 1.7.2 1.3.5zm-15 3c-.3.3-1.2.4-1.9.1-.8-.3-.5-.6.6-.6 1.1-.1 1.7.2 1.3.5zm-4 1c-.3.3-1.2.4-1.9.1-.8-.3-.5-.6.6-.6 1.1-.1 1.7.2 1.3.5zM444 714.5c1.3 1.4 2.1 2.5 1.8 2.5-.2 0-1.5-1.1-2.8-2.5-1.3-1.4-2.1-2.5-1.8-2.5.2 0 1.5 1.1 2.8 2.5zm93.5 2.5c-.3.5-1.2 1-1.8 1-.7 0-.6-.4.3-1 1.9-1.2 2.3-1.2 1.5 0zm97.5 2.7c-.8.3-3.3 1.4-5.5 2.5s-3.5 1.5-3 1c1.6-1.7 6.9-4.2 8.5-4.1 1.3 0 1.3.1 0 .6zm-417.1 21.7c-.7.7-19.3 6.6-20.4 6.5-1.3-.1 17.5-6.7 19.4-6.8.8-.1 1.2.1 1 .3zm45.1 4.1c1.3 1.4 2.1 2.5 1.8 2.5-.2 0-1.5-1.1-2.8-2.5-1.3-1.4-2.1-2.5-1.8-2.5.2 0 1.5 1.1 2.8 2.5zm-67.3 3.1c-.3.3-1.2.4-1.9.1-.8-.3-.5-.6.6-.6 1.1-.1 1.7.2 1.3.5zm155.8 6.2c-2.4 2.1-14.5 10.2-14.5 9.8 0-.6 14-10.6 14.9-10.6.3 0 .1.4-.4.8zm-78.7 4.7c-.3.3-.9-.2-1.2-1.2-.6-1.4-.5-1.5.5-.6.7.7 1 1.5.7 1.8zm41.2 29.9c0 .2-.8 1-1.7 1.7-1.6 1.3-1.7 1.2-.4-.4 1.3-1.6 2.1-2.1 2.1-1.3zm405.7 9.7c5.2 2.5 9.4 7.2 13.2 14.7 5 9.8 6.4 16.3 5.9 27.1-.3 8.6-.7 10.3-3.7 15.8-3.5 6.5-4 6.8-10.6 7.7l-4 .6 3.5-1.1c9.4-2.9 14-11 14-24.8 0-8.9-1.8-15.7-6.6-25.2-8.7-17.5-21.5-19.9-54.2-10.4-10.1 2.9-13.5 3.2-4.7.4 24.6-7.9 38-9.2 47.2-4.8zm-455.5 16.6c-1.6 2.1-4 4.7-5.3 5.8-1.3 1.1-.1-.6 2.6-3.8 5.5-6.4 7.3-7.7 2.7-2zm206.9 19.9c.9 1.1.2.9-1.8-.6-1.8-1.3-3.3-2.5-3.3-2.7 0-.8 3.8 1.7 5.1 3.3zm-244.8.1c-.7.2-1.9.2-2.5 0-.7-.3-.2-.5 1.2-.5s1.9.2 1.3.5zM219 837c-7 1.6-11.5 2.2-10.8 1.4 1-.9 7.4-2.2 11.3-2.2 2.9 0 2.9 0-.5.8zm256.5 2c1 1.1 1.6 2 1.3 2-.3 0-1.3-.9-2.3-2-1-1.1-1.6-2-1.3-2 .3 0 1.3.9 2.3 2zm-58.5-.6c0 .2-.8 1-1.7 1.7-1.6 1.3-1.7 1.2-.4-.4 1.3-1.6 2.1-2.1 2.1-1.3zm-207.5 20c1.9 12.6 6.7 26.9 10.9 32.6 4.3 5.8 14.5 12 20 12 3.2 0 4.5-.7 7.5-3.8 2-2.1 5-6.3 6.6-9.4 4.6-8.9 4.1-6-.7 3.6-3.4 6.8-4.8 8.8-7.2 9.6-6.7 2.3-15.8.1-22.5-5.6-8.9-7.6-17.5-34.5-16.9-52.9l.1-5 .4 4.5c.2 2.5 1 8.9 1.8 14.4zm196.9-7.9c-1.4 1.9-2.9 3.5-3.1 3.5-.5 0 .7-1.8 3.6-5.3 2.6-3.1 2.3-1.8-.5 1.8zm290.1 15.6l14 .2-10.3.8c-7 .5-14.7.3-24-.6-12.8-1.3-13-1.4-3.7-1 5.5.3 16.3.6 24 .6zm20.3-.4c-1 .2-2.8.2-4 0-1.3-.2-.5-.4 1.7-.4 2.2-.1 3.2.1 2.3.4zM591 878.4c0 .2-.8 1-1.7 1.7-1.6 1.3-1.7 1.2-.4-.4 1.3-1.6 2.1-2.1 2.1-1.3zm-4 2.9c0 .2-1 1.2-2.2 2.3l-2.3 1.9 1.9-2.3c1.8-2.1 2.6-2.7 2.6-1.9zm-245.1 9.4c-10.8 15-14.5 22.3-15.8 31.3-.7 4.3-.9 4.7-1 2-.1-4.2 3.2-16.3 5.5-19.7 2.2-3.4 14.7-19.3 15.1-19.3.2 0-1.5 2.6-3.8 5.7zm240.1-5.4c0 .2-1 1.2-2.2 2.3l-2.3 1.9 1.9-2.3c1.8-2.1 2.6-2.7 2.6-1.9zm-192.3 26.4c-.2 1.6-.4.5-.4-2.2 0-2.8.2-4 .4-2.8.2 1.3.2 3.5 0 5zm-64 24c-.2 1.6-.4.5-.4-2.2 0-2.8.2-4 .4-2.8.2 1.3.2 3.5 0 5zm1 8c-.3 1-.5.4-.5-1.2 0-1.7.2-2.4.5-1.8.2.7.2 2.1 0 3zm8.3 23.1c4.4 8.3 12.6 16.4 20.3 20.2 7.4 3.5 18.4 5.4 25.2 4.3 4.2-.7 5.4-1.5 8.2-5.1 1.8-2.4 3.3-4 3.3-3.6 0 .4-1.5 2.6-3.2 5-2.4 3.1-4.2 4.4-6.8 4.8-9.5 1.6-19.6-.1-28.3-4.7-6.7-3.5-16.6-13.6-20.1-20.5-2.6-5.2-6.6-17.5-6.5-20.1 0-.9 1 1.8 2.2 5.9 1.3 4.1 3.8 10.3 5.7 13.8zm63.2-4.3l-.9 6 .1-6.5c0-3.6-.2-8.8-.6-11.5l-.7-5 1.5 5.5c1.2 4.3 1.4 6.8.6 11.5zm208.3 48.5c2.1 2.2 3.7 4 3.4 4-.3 0-2.3-1.8-4.4-4-2.1-2.2-3.7-4-3.4-4 .3 0 2.3 1.8 4.4 4zm-138.8 20.2c-.3.8-.6.5-.6-.6-.1-1.1.2-1.7.5-1.3.3.3.4 1.2.1 1.9zm-2 7c-.3.8-.6.5-.6-.6-.1-1.1.2-1.7.5-1.3.3.3.4 1.2.1 1.9zm-2.3 8.2c-.3 1.5-.8 2.5-1.1 2.3-.2-.3-.1-1.7.3-3.1.3-1.5.8-2.5 1.1-2.3.2.3.1 1.7-.3 3.1zm5.2 5.3c-1.8 3.5-4.5 7-4.6 6 0-.8 5.1-8.7 5.7-8.7.2 0-.3 1.2-1.1 2.7zm-4.6-.2c-2.6 1.4-3.6 1.3-2.7-.2.3-.5 1.6-.9 2.9-1l2.3-.2-2.5 1.4zm214 2.5c1.9 1.1 3.1 1.9 2.5 1.9-.5 0-2.6-.8-4.5-1.9-1.9-1.1-3-1.9-2.5-1.9.6 0 2.6.8 4.5 1.9zm19.4 9.2c12.9 6.6 14.9 8.1 23.3 16.4 5 5.1 9.6 10.1 10.2 11.3 1.1 2 1 2.1-5.6 1.9-6.3-.2-6.4-.2-1.5-.5 2.8-.2 5.2-.7 5.2-1.1 0-.4-1.7-2.8-3.8-5.4-6.7-8.4-16.1-15.2-33.7-24.5-5.5-2.9-9.6-5.3-9.1-5.3s7.2 3.3 15 7.2zm-238.5 1.4c-1.8 2-5.6 5.4-8.4 7.7-2.7 2.2-1.4.6 3-3.6 8.4-8 11.2-10.1 5.4-4.1zm154.8 7c-.3.3-1.2.4-1.9.1-.8-.3-.5-.6.6-.6 1.1-.1 1.7.2 1.3.5zm4.6 1.1c-.7.2-1.9.2-2.5 0-.7-.3-.2-.5 1.2-.5s1.9.2 1.3.5zm4.4.9c-.3.3-1.2.4-1.9.1-.8-.3-.5-.6.6-.6 1.1-.1 1.7.2 1.3.5zm5 1c-.3.3-1.2.4-1.9.1-.8-.3-.5-.6.6-.6 1.1-.1 1.7.2 1.3.5zm-111.7 1.9c-1.4.8-2.9 1.4-3.5 1.4-.5 0 .1-.6 1.5-1.4 1.4-.8 3-1.4 3.5-1.4.6 0-.1.6-1.5 1.4zm-9.5 4c-2.7 1.3-5.4 2.4-6 2.4-.5-.1 1.3-1.1 4-2.4 2.8-1.3 5.5-2.4 6-2.4.6.1-1.2 1.1-4 2.4zm143.2-.9c-.3.3-1.2.4-1.9.1-.8-.3-.5-.6.6-.6 1.1-.1 1.7.2 1.3.5zm17 3.4c6.2 1.3 11.1 2.5 10.9 2.7-.6.6-15.8-2.3-22.1-4.2-6.2-1.8-3.2-1.4 11.2 1.5zm-243.7 4c-1.4.5-4.4 1.4-6.7 2-4.9 1.2-5.4 2.8-2.4 7.6 3.4 5.6 7.8 6.9 23.1 6.8 14.9 0 22.1-1.4 32.8-6.4 3.4-1.6 6.2-2.7 6.2-2.4 0 .3-3.3 2-7.2 3.8-13.5 6.2-28.6 8.7-40.3 6.7-11.3-2-15.4-4.8-17.5-12.2-1-3.5.1-4.5 6.5-5.7 6.3-1.2 8.7-1.3 5.5-.2zm259.3-.3c-.7.2-1.9.2-2.5 0-.7-.3-.2-.5 1.2-.5s1.9.2 1.3.5zm9.2 1.3c2.7.7 2.7.8.5.8-1.4 0-3.8-.4-5.5-.8-2.7-.7-2.7-.8-.5-.8 1.4 0 3.9.4 5.5.8zm7.8 1.7c-.7.2-1.9.2-2.5 0-.7-.3-.2-.5 1.2-.5s1.9.2 1.3.5zm7 1c-.7.2-1.9.2-2.5 0-.7-.3-.2-.5 1.2-.5s1.9.2 1.3.5zm7 1c-.7.2-1.9.2-2.5 0-.7-.3-.2-.5 1.2-.5s1.9.2 1.3.5z"/></svg>