<?xml version="1.0" standalone="no"?>
<!DOCTYPE svg PUBLIC "-//W3C//DTD SVG 20010904//EN"
 "http://www.w3.org/TR/2001/REC-SVG-20010904/DTD/svg10.dtd">
<svg version="1.0" xmlns="http://www.w3.org/2000/svg"
 width="1280.000000pt" height="1018.000000pt" viewBox="0 0 1280.000000 1018.000000"
 preserveAspectRatio="xMidYMid meet">
<metadata>
Created by potrace 1.15, written by Peter Selinger 2001-2017
</metadata>
<g transform="translate(0.000000,1018.000000) scale(0.100000,-0.100000)"
fill="#000000" stroke="none">
<path d="M5983 10164 c-15 -41 62 -232 127 -314 28 -35 31 -47 35 -132 3 -51
14 -127 25 -168 11 -41 47 -195 80 -342 33 -147 74 -307 91 -355 61 -172 138
-294 223 -354 l42 -30 -9 -87 c-12 -117 -2 -404 18 -524 9 -53 15 -118 13
-145 l-3 -48 -44 75 c-137 233 -273 423 -424 592 -53 60 -127 158 -166 222
-73 116 -87 133 -276 318 -123 120 -156 139 -285 162 -67 12 -386 36 -484 36
-39 0 15 -39 138 -99 456 -222 544 -268 652 -340 143 -95 276 -217 338 -309
107 -163 260 -479 334 -692 48 -139 83 -269 112 -412 12 -59 39 -160 61 -225
22 -65 46 -147 55 -183 8 -36 32 -111 54 -167 35 -88 70 -218 70 -257 0 -7
-35 -18 -92 -28 -51 -9 -192 -37 -313 -61 -121 -25 -235 -47 -252 -51 -32 -5
-33 -4 -33 27 0 43 26 198 45 272 9 33 32 96 52 140 70 157 84 196 81 218 -3
19 -7 16 -32 -23 -16 -25 -55 -75 -86 -113 -74 -87 -107 -184 -145 -427 -8
-52 -15 -98 -15 -102 0 -5 -7 -8 -15 -8 -19 0 -19 21 0 185 51 435 128 683
305 971 55 89 103 170 106 178 14 36 -19 11 -100 -75 -112 -119 -256 -305
-329 -425 -67 -109 -76 -147 -78 -324 0 -58 -4 -116 -8 -130 l-7 -25 -8 30
c-4 17 -12 163 -16 325 -5 162 -12 367 -16 455 -6 155 -5 162 20 235 29 81 54
248 62 405 2 55 6 125 9 155 2 32 0 49 -4 40 -17 -31 -50 -198 -56 -289 -4
-53 -20 -140 -37 -200 -28 -101 -30 -119 -38 -391 -5 -157 -14 -303 -19 -325
-6 -22 -11 -55 -11 -72 0 -56 -15 -36 -28 37 -18 107 -67 248 -113 325 -23 39
-58 110 -78 159 -34 86 -61 120 -61 79 0 -11 11 -48 25 -83 14 -36 37 -114 51
-175 14 -60 40 -162 56 -225 44 -166 58 -265 65 -440 5 -147 -9 -355 -25 -372
-4 -3 -37 -4 -74 -1 -50 4 -68 10 -71 22 -4 14 -5 13 -6 -1 -1 -11 -9 -18 -20
-18 -17 0 -19 5 -14 38 7 45 11 51 24 32 7 -11 7 -6 2 15 -8 35 -8 40 6 125
21 127 12 153 -36 108 -13 -12 -23 -16 -23 -9 0 74 -39 339 -50 346 -11 7 -40
-87 -40 -125 0 -14 8 -58 18 -97 18 -68 18 -70 0 -93 -26 -32 -56 -138 -72
-259 -8 -57 -18 -106 -22 -110 -4 -3 -4 14 0 39 12 85 20 547 9 553 -17 11
-25 -66 -31 -335 -4 -141 -10 -259 -13 -263 -6 -5 -304 -84 -321 -85 -28 0 18
356 73 573 38 152 59 209 115 313 93 174 93 223 1 101 -101 -131 -222 -422
-234 -560 -3 -37 -7 -66 -9 -64 -9 8 -44 336 -45 417 -1 52 -4 127 -8 165 l-7
70 -8 -95 c-4 -52 -6 -195 -4 -318 2 -122 2 -222 0 -222 -2 0 -22 42 -46 93
-35 75 -126 224 -126 205 0 -2 23 -55 50 -117 28 -61 61 -156 74 -211 23 -94
63 -367 55 -374 -2 -2 -18 -7 -35 -10 -30 -7 -31 -5 -38 31 -3 21 -6 55 -6 76
0 135 -64 421 -132 597 -74 190 -79 115 -6 -83 l41 -112 5 -240 c2 -132 2
-238 0 -235 -22 22 -62 165 -88 313 -17 98 -37 193 -44 210 -13 29 -14 15 -15
-142 -1 -144 3 -196 24 -313 14 -77 25 -141 23 -143 -2 -1 -59 -9 -128 -19
-69 -9 -140 -19 -157 -22 l-33 -6 0 81 c0 50 -17 185 -46 353 -29 170 -43 283
-39 302 4 17 10 76 15 131 7 91 14 116 80 285 98 250 120 331 120 448 0 83 3
99 26 138 21 35 23 44 11 44 -9 0 -19 -5 -22 -10 -4 -6 -15 -8 -26 -5 -11 4
-19 2 -19 -5 0 -7 -36 -49 -80 -94 -90 -91 -148 -165 -193 -245 -35 -61 -34
-61 -67 59 l-24 84 128 251 c71 137 140 262 154 277 36 39 20 46 -27 14 -45
-31 -105 -101 -223 -257 l-83 -109 -28 83 -28 82 26 83 c54 170 151 330 237
392 40 30 43 30 170 30 111 0 130 2 135 17 9 22 -33 56 -102 82 -31 12 -97 47
-148 79 -51 33 -109 64 -129 71 -58 19 -112 -10 -180 -95 -88 -109 -116 -160
-135 -246 -10 -43 -20 -78 -23 -78 -3 0 -36 56 -75 123 -87 154 -193 325 -206
332 -13 9 -11 -15 6 -71 9 -27 31 -127 51 -223 19 -96 67 -292 107 -435 l72
-261 -2 -195 -2 -196 -54 -114 c-30 -63 -64 -141 -77 -172 -13 -32 -25 -56
-28 -54 -2 2 -70 151 -152 330 -113 247 -165 350 -218 428 -90 132 -126 201
-152 291 -26 90 -112 339 -115 335 -7 -7 57 -448 71 -493 9 -27 49 -125 90
-217 44 -98 81 -197 90 -240 24 -117 34 -148 70 -229 18 -41 40 -108 49 -147
9 -47 39 -120 85 -212 l70 -140 -41 -92 c-78 -175 -87 -204 -149 -458 -35
-140 -67 -259 -72 -265 -4 -5 -8 7 -8 28 0 37 -17 87 -30 87 -4 0 -13 21 -20
48 -13 51 -14 143 -4 262 4 54 0 113 -15 210 -31 193 -29 176 -56 520 -27 338
-43 464 -74 587 -11 43 -34 150 -51 238 -67 343 -147 635 -232 853 -55 141
-84 190 -73 125 30 -179 62 -347 151 -791 57 -287 115 -609 129 -715 35 -255
47 -311 99 -453 35 -95 47 -146 60 -249 20 -163 36 -348 35 -400 0 -40 0 -40
-23 25 -31 89 -53 130 -150 277 -50 75 -114 192 -156 283 -87 189 -236 623
-291 850 -48 198 -69 248 -159 365 -37 50 -70 99 -72 110 -4 25 -22 23 -26 -3
-2 -11 22 -95 52 -186 30 -92 71 -221 91 -289 20 -67 43 -142 51 -166 15 -48
12 -65 -5 -32 -6 11 -46 65 -89 118 l-78 98 -37 162 c-47 204 -87 322 -147
443 l-48 95 18 36 c49 94 159 185 322 265 l93 46 83 -7 c50 -4 82 -2 82 4 0
13 -66 64 -117 90 -57 28 -147 51 -205 51 -182 0 -393 -128 -431 -261 -50
-174 -59 -222 -60 -350 -1 -71 -3 -129 -3 -129 -1 0 -28 42 -60 93 -32 50 -75
115 -96 142 -20 28 -45 69 -54 90 -12 27 -19 35 -21 23 -6 -25 49 -179 142
-398 45 -107 87 -211 93 -230 26 -80 44 -197 62 -400 11 -118 25 -243 31 -278
6 -35 10 -64 8 -66 -2 -1 -45 11 -96 27 -90 29 -91 30 -98 65 -13 69 -93 338
-130 437 -50 133 -210 483 -265 580 -41 71 -45 75 -48 49 -2 -16 10 -96 27
-179 46 -233 60 -352 70 -590 5 -121 8 -221 7 -222 -1 -1 -38 9 -81 23 -65 20
-97 38 -169 95 -58 45 -101 89 -125 127 -21 31 -73 102 -116 157 -43 55 -84
115 -92 133 -23 55 -22 36 3 -55 13 -48 22 -88 20 -90 -2 -3 -19 14 -36 36
-114 142 -349 244 -506 219 -142 -22 -174 -90 -141 -296 l12 -73 22 23 c11 13
33 52 47 87 42 105 80 132 181 133 121 1 254 -66 413 -209 38 -34 46 -49 72
-138 16 -55 30 -103 30 -108 0 -4 -62 -5 -137 -2 -172 8 -161 -7 25 -32 l131
-17 16 -61 c10 -33 35 -115 56 -183 21 -68 39 -124 39 -126 0 -2 -18 3 -41 10
-47 17 -313 46 -373 42 -38 -3 -22 -11 214 -117 140 -62 260 -119 266 -125 6
-6 32 -96 59 -200 28 -113 65 -232 92 -294 24 -57 42 -106 39 -109 -2 -2 -37
7 -77 22 -67 24 -81 35 -173 128 -206 210 -559 416 -574 336 -2 -11 23 -29 78
-59 55 -30 100 -64 139 -105 69 -74 111 -131 90 -123 -118 50 -154 62 -217 74
-80 15 -262 19 -247 6 11 -10 31 -16 319 -101 160 -47 203 -63 216 -82 10 -13
82 -134 160 -269 224 -385 398 -639 544 -797 l55 -60 -100 -68 c-132 -89 -299
-250 -380 -366 -35 -51 -81 -112 -102 -137 -48 -56 -127 -173 -156 -231 -30
-59 -35 -110 -36 -356 0 -203 1 -212 27 -280 73 -195 81 -222 82 -280 1 -97
-39 -160 -225 -350 -85 -88 -167 -180 -181 -205 -41 -70 -58 -146 -61 -266 -2
-96 2 -124 31 -234 56 -211 104 -374 117 -400 33 -63 123 -121 253 -162 54
-16 126 -41 162 -55 140 -54 236 -67 319 -43 82 23 243 32 355 20 185 -20 285
-62 431 -178 124 -99 423 -401 506 -512 84 -112 124 -146 204 -176 45 -17 77
-19 352 -16 l303 3 77 -26 c173 -59 218 -90 458 -326 249 -244 281 -266 471
-328 199 -65 451 -107 704 -118 245 -10 358 17 565 136 245 142 278 153 584
206 183 32 278 53 331 74 62 25 89 30 161 31 47 0 110 4 140 10 209 37 667 71
954 71 210 0 241 -3 350 -26 210 -46 240 -47 960 -40 648 6 690 5 890 -15 429
-44 669 -15 835 102 30 21 102 61 160 89 91 44 115 61 190 137 147 149 176
205 168 331 -7 96 -33 166 -103 270 l-56 82 16 45 c48 143 -33 346 -218 542
-28 29 -47 56 -43 60 16 15 290 7 411 -13 139 -22 372 -25 475 -6 98 19 346
98 425 136 63 30 89 53 244 215 181 190 219 246 234 346 4 22 7 200 7 394 1
195 5 373 10 397 8 33 7 49 -4 66 -8 12 -17 33 -21 47 -13 44 -86 194 -111
226 -12 17 -83 74 -156 127 -73 52 -177 133 -231 179 -54 46 -124 102 -155
126 -32 23 -84 69 -117 101 -81 80 -168 138 -233 157 -52 15 -83 35 -317 195
-60 42 -202 123 -315 181 -113 57 -288 156 -389 219 -177 109 -192 121 -371
294 -247 238 -349 310 -684 477 -78 39 -142 72 -144 73 -2 2 15 45 36 96 67
156 86 249 52 249 -27 0 -123 -161 -170 -284 -9 -23 -11 -24 -42 -14 -18 6
-37 14 -42 18 -4 5 20 44 55 87 35 44 93 122 129 173 38 55 94 119 140 159
120 105 184 173 204 214 16 35 16 40 2 62 -14 21 -20 23 -44 15 -15 -6 -49
-34 -77 -64 -27 -29 -94 -90 -147 -135 -53 -45 -135 -122 -182 -173 -75 -79
-88 -99 -106 -157 -11 -36 -24 -73 -30 -81 -17 -26 -12 13 19 143 16 67 32
149 35 182 17 158 96 402 216 675 61 137 82 202 70 214 -14 14 -53 -26 -88
-92 -16 -32 -55 -120 -85 -197 -31 -77 -83 -202 -116 -278 -34 -77 -70 -167
-80 -202 -29 -94 -54 -297 -48 -391 2 -45 1 -87 -2 -93 -13 -21 -113 350 -146
539 -9 52 -19 98 -22 104 -9 13 -21 -22 -23 -64 -1 -29 -4 -25 -15 27 -14 64
-28 96 -53 126 -30 34 -35 19 -28 -85 4 -57 11 -166 16 -243 5 -77 9 -189 9
-249 l1 -108 -37 6 c-71 13 -70 11 -76 86 -3 38 -10 78 -16 87 -9 17 -10 17
-17 0 -3 -10 -4 -47 -1 -83 3 -42 1 -64 -6 -64 -11 0 -130 22 -135 26 -1 0 5
42 13 93 25 145 14 177 -14 41 -13 -63 -26 -118 -30 -122 -7 -8 -276 34 -287
44 -8 9 28 67 62 98 32 30 137 160 132 164 -1 2 -57 -54 -123 -125 -117 -124
-121 -128 -160 -126 l-40 2 3 49 c3 74 50 272 81 346 15 36 57 108 94 159 65
90 79 121 56 121 -22 0 -54 -52 -155 -250 -99 -194 -154 -332 -154 -384 0 -20
-6 -24 -47 -29 -27 -3 -51 -1 -54 4 -3 6 -18 78 -33 162 -15 84 -32 156 -37
162 -17 17 -10 -152 11 -240 11 -47 20 -88 20 -90 0 -12 -172 -4 -527 21 l-73
6 0 64 c0 57 6 78 48 167 31 66 74 134 120 191 110 137 160 217 227 367 40 87
78 156 104 185 24 27 74 116 125 220 120 245 202 361 368 520 258 247 564 443
863 552 173 63 189 73 144 87 -30 10 -115 -2 -263 -37 -99 -23 -133 -28 -151
-20 -33 15 -155 27 -133 13 9 -6 40 -17 69 -24 l52 -14 -105 -50 c-58 -28
-134 -67 -168 -87 -34 -20 -64 -35 -67 -33 -2 3 5 27 15 55 27 69 90 149 127
161 17 5 22 10 13 10 -10 1 -18 6 -18 13 0 6 31 70 69 142 135 257 230 494
252 631 7 44 21 91 31 105 9 14 27 51 37 83 11 31 40 83 64 115 72 94 81 122
37 122 -29 0 -83 -52 -115 -112 -62 -116 -69 -122 -128 -123 -73 -2 -203 -63
-258 -122 -67 -73 -151 -213 -191 -316 -38 -100 -41 -107 -89 -164 -15 -17
-34 -54 -44 -83 -10 -29 -49 -94 -91 -151 l-74 -99 -92 -1 c-51 0 -119 -4
-150 -8 -53 -6 -72 -1 -49 13 29 18 130 173 205 316 48 91 109 194 136 229 67
87 481 513 568 585 74 60 186 115 235 116 39 0 68 17 61 35 -21 54 -334 -52
-551 -187 -160 -98 -482 -445 -578 -623 -21 -38 -69 -112 -107 -163 -87 -116
-138 -203 -178 -303 -23 -56 -38 -80 -53 -85 -12 -4 -74 -29 -138 -56 -95 -40
-125 -59 -167 -101 -116 -118 -195 -302 -251 -582 -16 -83 -46 -206 -66 -275
l-36 -125 3 -315 c3 -276 0 -340 -20 -520 -13 -113 -25 -230 -28 -260 -10 -98
-24 -31 -28 137 -2 87 -12 214 -21 283 -12 81 -19 192 -20 315 -1 105 -5 206
-9 225 -4 19 -30 130 -56 245 -68 292 -74 333 -67 520 3 88 2 193 -3 233 -6
59 -5 80 8 105 13 27 14 40 2 101 -19 101 -17 113 30 196 45 78 232 345 309
440 73 90 88 153 33 136 -32 -11 -168 -118 -250 -198 -89 -87 -146 -154 -195
-227 l-35 -53 -11 38 c-6 22 -11 47 -11 56 0 53 -105 264 -198 398 -24 36 -78
126 -119 200 -105 189 -182 310 -199 310 -8 0 -22 -9 -31 -20 -16 -18 -18 -16
-53 68 -52 123 -108 232 -120 232 -6 0 -13 -7 -17 -16z m2211 -1570 c-18 -43
-21 -194 -5 -236 16 -43 -44 -183 -124 -288 -43 -56 -64 -93 -63 -107 2 -16
-15 -41 -58 -85 -77 -79 -181 -254 -228 -385 -20 -54 -43 -112 -51 -129 -17
-39 -159 -216 -163 -205 -2 5 4 52 13 105 8 53 15 144 15 203 1 187 25 298
117 533 46 115 266 587 282 603 5 5 64 12 132 16 68 5 129 9 136 10 9 1 8 -9
-3 -35z m-575 -215 c-22 -63 -52 -145 -66 -184 -49 -138 -221 -794 -294 -1118
-31 -139 -40 -222 -40 -367 0 -75 -4 -141 -8 -148 -4 -7 -20 75 -36 189 -32
230 -31 261 25 485 19 78 31 153 33 219 3 55 16 189 31 299 35 264 47 290 264
586 89 121 123 162 129 156 2 -2 -15 -54 -38 -117z m794 -65 c4 -4 -19 -34
-50 -68 -31 -34 -108 -126 -171 -206 -134 -169 -140 -176 -118 -132 9 17 20
32 24 32 16 0 73 102 123 219 50 117 54 124 93 141 42 19 88 25 99 14z m-6521
-151 c2 -40 0 -69 -5 -64 -4 4 -10 50 -12 102 -4 66 -2 85 4 64 5 -16 11 -63
13 -102z m405 -893 c82 -134 97 -165 109 -230 19 -97 65 -412 61 -416 -2 -2
-35 29 -74 69 l-72 72 -20 105 c-11 58 -27 134 -35 170 -8 36 -18 94 -21 130
-4 35 -22 116 -40 180 -39 133 -39 133 92 -80z m4493 -45 c0 -5 -5 -3 -10 5
-5 8 -10 20 -10 25 0 6 5 3 10 -5 5 -8 10 -19 10 -25z m-3003 -205 l20 -55
-89 -225 c-49 -124 -93 -234 -97 -245 -6 -15 -11 -1 -21 54 -11 60 -12 104 -2
232 19 248 43 345 110 447 15 23 16 21 37 -65 12 -48 31 -113 42 -143z m-2543
200 c14 -5 26 -16 26 -25 0 -22 -13 -19 -40 10 -26 28 -24 30 14 15z m78 -351
c61 -78 156 -245 145 -255 -2 -2 -15 4 -28 15 -14 11 -65 44 -114 75 l-90 56
-22 92 c-12 50 -38 125 -58 166 l-35 74 68 -69 c37 -37 98 -107 134 -154z
m593 -117 c-2 -2 -17 5 -32 16 -16 11 -53 32 -83 46 -70 33 -150 109 -150 142
0 21 16 11 135 -88 74 -62 132 -114 130 -116z m1633 138 c-12 -64 -23 -81 -33
-51 -6 19 30 120 39 110 2 -2 -1 -29 -6 -59z m346 -150 c55 -168 55 -205 6
-480 -23 -129 -44 -252 -47 -273 -6 -40 1 -36 -133 -73 -14 -3 -18 18 -28 133
-6 76 -19 170 -27 210 l-15 71 31 99 c68 214 156 436 170 428 4 -3 24 -55 43
-115z m-1158 -197 c55 -119 109 -292 148 -475 41 -190 43 -207 16 -156 -11 20
-48 77 -83 126 l-64 90 -11 119 c-6 65 -14 156 -18 203 -4 47 -12 104 -19 128
-7 23 -11 42 -9 42 3 0 21 -35 40 -77z m652 -364 c-38 -162 -75 -300 -80 -306
-6 -7 -23 -13 -38 -13 l-28 0 30 92 c16 51 36 144 44 212 29 244 34 271 65
336 l31 65 24 -46 23 -47 -71 -293z m1991 261 c-10 -38 -21 -96 -25 -129 -6
-52 -9 -60 -31 -66 -14 -3 -28 -4 -31 -1 -8 9 89 266 101 266 2 0 -5 -31 -14
-70z m-3953 -136 c61 -85 255 -396 251 -401 -2 -2 -43 15 -90 37 -64 29 -87
45 -87 59 0 22 -78 256 -108 324 -11 26 -19 47 -17 47 2 0 25 -30 51 -66z
m2114 -79 c0 -14 -63 -165 -86 -205 -31 -56 -29 -50 26 93 25 64 48 117 53
117 4 0 7 -2 7 -5z m5557 -27 c-3 -7 -5 -2 -5 12 0 14 2 19 5 13 2 -7 2 -19 0
-25z m-7102 -132 c25 -43 6 -22 -44 49 -37 53 -38 55 -8 21 19 -21 42 -53 52
-70z m-859 29 c35 -20 68 -44 73 -53 12 -25 25 -139 13 -127 -25 28 -161 215
-155 215 3 0 35 -16 69 -35z m2463 -182 c1 -13 -3 -23 -9 -23 -5 0 -10 19 -9
43 0 32 2 37 9 22 5 -11 9 -30 9 -42z m-1483 -60 c22 -36 57 -87 80 -112 88
-99 114 -140 114 -182 0 -28 -5 -42 -17 -46 -9 -4 -19 -1 -21 5 -2 7 -30 32
-62 57 l-58 45 -23 97 c-12 54 -30 122 -40 150 -10 29 -17 53 -15 53 2 0 21
-30 42 -67z m-353 -264 l47 -44 21 -123 c12 -67 20 -124 18 -126 -2 -1 -34
-19 -71 -40 l-67 -37 -19 38 c-31 60 -152 481 -152 527 0 7 59 -45 223 -195z"/>
<path d="M2771 8520 c0 -8 7 -31 15 -50 l14 -35 -6 40 c-5 38 -25 75 -23 45z"/>
<path d="M4757 7578 c-9 -142 -7 -304 3 -343 4 -17 8 79 9 213 0 133 -1 242
-2 242 -2 0 -7 -51 -10 -112z"/>
<path d="M4465 7040 c4 -14 12 -29 17 -35 7 -7 8 -2 3 15 -4 14 -12 30 -17 35
-7 7 -8 2 -3 -15z"/>
<path d="M5118 6693 c-30 -8 -31 -46 -4 -125 14 -41 26 -82 26 -91 0 -9 5 -19
10 -22 7 -4 10 34 8 116 -3 122 -6 131 -40 122z"/>
</g>
</svg>
