<svg xmlns="http://www.w3.org/2000/svg" viewBox="0 0 440.56 440.56"><path d="M435.56 331.96h-65.17c-10.18-36.35-7.62-67.14 7.64-91.55 11.74-18.8 27.07-26.66 27.21-26.73a5 5 0 0 0-2-9.48c-25.14-1.1-47.29 10.53-64.06 33.64a120.4 120.4 0 0 0-7.57 11.88c4.52-71.58 40.07-117.53 40.47-118.03a5 5 0 0 0-5.17-7.94c-42.86 11.07-68.47 67.4-80.38 101.94-6.29-54.05-26.57-74.9-27.56-75.9a5 5 0 0 0-8.16 5.42c8.23 20.33 1.5 65.94-4.75 97.52-5.76-51.81-18.77-70.11-19.43-71a5 5 0 0 0-9.02 2.76c-.9 22.57-10.89 50.06-17.9 66.8-3.62-37.56 3.04-93.15 24.92-115.45a5 5 0 0 0-3.2-8.5c-.6-.03-14.84-.93-30.18 12.1-15.05 12.8-25.77 33.92-32 62.98-10.04-41.7-25.78-71.54-46.96-88.88C92.38 97.24 75 98.6 74.27 98.65a5 5 0 0 0-2.65 8.9c28.44 22.52 45.38 90.58 53.2 157.8-14.03-29.95-32.05-45.67-46.5-53.9-21.87-12.43-40.43-11.01-41.2-10.95a5 5 0 0 0-2.74 8.86c31.61 25.76 49.68 55.6 52.26 86.28 1.47 17.5-2.48 30.8-4.53 36.32H5a5 5 0 1 0 0 10h430.56a5 5 0 1 0 0-10zm-338.9-36.54C95 274.26 85.76 243.47 52.53 212a76.26 76.26 0 0 1 20.84 8.16c25.94 14.75 45.04 44.82 55.25 86.95a5 5 0 0 0 9.85-1.5c-2.28-35.6-12.28-147.08-49.24-194.22 18.76 7.13 51.27 32.3 65.7 120.38a5.01 5.01 0 0 0 9.9-.29c5.31-50.52 20.45-73.47 32.22-83.82a44.99 44.99 0 0 1 11.87-7.65c-20.56 33.53-24.06 95.76-16.46 129.85a5 5 0 0 0 9.35 1.15c.84-1.67 17.58-35.48 23.67-68.28 5.15 14.61 11.53 41.08 12.98 84.64a5 5 0 0 0 9.83 1.1c.87-3.32 17.27-66.87 16.18-110.14 6.54 15.4 13.3 39.87 13.86 75.77a5 5 0 0 0 9.87 1.06c.23-.97 21.2-88.79 66.7-115.62-3.99 6.7-8.8 15.7-13.56 26.77a250.78 250.78 0 0 0-20.01 108.14 5 5 0 0 0 9.8 1.2c.04-.17 4.86-16.47 16.3-32.15 10.8-14.78 23.54-24.02 38.06-27.63a93.58 93.58 0 0 0-15.63 18.75c-11.6 18.31-22.37 49.84-9.81 97.35H92.7a96.98 96.98 0 0 0 3.96-36.54z"/></svg>