<svg xmlns="http://www.w3.org/2000/svg" viewBox="0 0 512 512"><path d="M511.9 202.97a11.61 11.61 0 0 0-11.63-10.16c-31.16.26-61.63 14.5-88.1 41.18-17.02 17.15-32.34 39.38-44.16 63.89 2.36-20.6 6.35-39.9 12-58.22 10.39-33.68 30.26-76.16 65.91-87.24a11.63 11.63 0 0 0-4.42-22.68c-66.7 5.48-107.41 83.78-126.94 134.54-.22-17.43-.07-34.23.46-50.64.09-2.88.13-6.66.18-11.03.3-25.99 1.01-86.86 16.86-108.13a11.49 11.49 0 0 0-1.76-15.74 11.54 11.54 0 0 0-15.9.7c-15.32 15.62-24.3 45.3-29.67 63.02a469.5 469.5 0 0 1-1.73 5.64c-12.44 39.2-20.87 79.85-27 115.25-6.14-35.4-14.57-76.04-27-115.26-.52-1.6-1.09-3.5-1.74-5.63-5.37-17.73-14.35-47.4-29.67-63.03a11.54 11.54 0 0 0-15.9-.7 11.49 11.49 0 0 0-1.75 15.75c15.85 21.27 16.55 82.14 16.85 108.13.05 4.38.1 8.15.19 11.03.53 16.4.68 33.2.45 50.64-19.52-50.76-60.24-129.06-126.94-134.55a11.63 11.63 0 0 0-4.42 22.68c35.66 11.09 55.53 53.57 65.92 87.25a320.5 320.5 0 0 1 12 58.22c-11.83-24.5-27.15-46.75-44.16-63.9-26.48-26.68-56.94-40.92-88.1-41.17h-.1a11.62 11.62 0 0 0-2.87 22.9c31.4 7.94 50.1 40 60.26 65.5 16.6 41.69 19.74 86.34 20.32 103.6.96 28.76 24.12 51.3 52.73 51.3h227.85c28.61 0 51.77-22.54 52.73-51.3.58-17.26 3.71-61.9 20.32-103.6 10.16-25.5 28.87-57.56 60.26-65.5a11.62 11.62 0 0 0 8.67-12.75zm-87.87 70.7c-17.8 44.67-21.15 92.13-21.76 110.46-.6 17.7-14.8 31.58-32.35 31.58H142.07c-17.54 0-31.75-13.88-32.34-31.58-.61-18.33-3.96-65.8-21.76-110.46-6.74-16.91-14.8-31.33-24.03-43.09 31.56 21.34 55.5 58.84 68.85 92.5l.17.43c4.07 10.27 9.64 24.32 13.8 38.83a10.2 10.2 0 0 0 20-2.53c1.32-47.28-3.68-88.55-15.28-126.16-4.26-13.82-10.02-28.96-17.7-43.32 1.45 1.78 2.89 3.62 4.32 5.51 20.2 26.78 34.35 59.41 42.66 82.08a537.87 537.87 0 0 1 15 47.27 10.2 10.2 0 0 0 20.05-2.06c2.15-39.76 2.66-75.8 1.56-110.14-.09-2.67-.13-6.35-.18-10.6-.08-6.87-.18-14.97-.46-23.73 11.66 42.6 19.01 85.43 24.27 119.51 1.3 8.44 3.09 17.47 4.97 27.03l.02.12a10.2 10.2 0 0 0 20.01 0l.03-.16c1.88-9.55 3.66-18.57 4.96-27 5.26-34.07 12.62-76.9 24.27-119.5-.28 8.76-.38 16.86-.46 23.72-.05 4.26-.09 7.94-.18 10.6-1.1 34.37-.59 70.4 1.56 110.15a10.2 10.2 0 0 0 20.05 2.06 537.66 537.66 0 0 1 15-47.27c8.31-22.67 22.46-55.3 42.66-82.08 1.44-1.9 2.88-3.73 4.32-5.51-7.68 14.36-13.44 29.5-17.7 43.32-11.6 37.6-16.6 78.87-15.28 126.16a10.2 10.2 0 0 0 20 2.53c4.15-14.5 9.72-28.54 13.79-38.8l.18-.47c13.35-33.65 37.3-71.15 68.86-92.49-9.23 11.75-17.3 26.18-24.03 43.09z"/><path d="M308.4 382.48H140.75a10.2 10.2 0 1 0 0 20.4H308.4a10.2 10.2 0 0 0 0-20.4zM375.33 382.48h-33.68a10.2 10.2 0 0 0 0 20.4h33.68a10.2 10.2 0 0 0 0-20.4z"/></svg>