<?xml version="1.0" standalone="no"?>
<!DOCTYPE svg PUBLIC "-//W3C//DTD SVG 20010904//EN"
 "http://www.w3.org/TR/2001/REC-SVG-20010904/DTD/svg10.dtd">
<svg version="1.0" xmlns="http://www.w3.org/2000/svg"
 width="1280.000000pt" height="640.000000pt" viewBox="0 0 1280.000000 640.000000"
 preserveAspectRatio="xMidYMid meet">
<metadata>
Created by potrace 1.15, written by Peter Selinger 2001-2017
</metadata>
<g transform="translate(0.000000,640.000000) scale(0.100000,-0.100000)"
fill="#000000" stroke="none">
<path d="M6940 6243 c0 -71 15 -191 85 -703 60 -438 94 -705 124 -975 29 -256
72 -727 68 -731 -2 -2 -9 33 -16 79 -27 176 -109 565 -161 759 -36 136 -90
308 -111 354 -58 123 -53 11 26 -588 32 -244 45 -346 55 -433 88 -760 125
-1247 150 -1938 6 -153 9 -322 9 -375 l-1 -97 -23 155 c-77 527 -189 928 -351
1253 -50 100 -64 138 -64 173 0 47 -14 59 -24 22 -5 -21 -9 -18 -43 32 -45 67
-124 144 -196 190 -49 32 -59 45 -110 145 -79 154 -168 288 -235 353 -105 101
-232 179 -232 142 0 -22 55 -119 126 -222 40 -59 92 -141 114 -183 l42 -76
-12 -157 c-6 -86 -12 -168 -13 -181 -2 -18 -16 -2 -70 78 -53 78 -87 116 -147
164 l-79 62 6 83 c4 52 2 82 -4 82 -9 0 -31 -49 -48 -108 -5 -17 -12 -21 -26
-17 -15 5 -19 1 -19 -17 0 -13 4 -29 9 -36 5 -8 -1 -46 -16 -95 -13 -45 -51
-192 -84 -327 -33 -135 -63 -258 -68 -275 -14 -54 -24 293 -18 620 7 321 18
484 62 909 14 137 23 251 21 253 -12 13 -28 -16 -56 -104 -143 -446 -211
-1184 -179 -1933 19 -442 18 -538 -9 -715 -13 -82 -27 -159 -31 -169 -4 -11
-12 35 -19 115 -65 709 -67 1197 -7 1784 28 270 31 340 14 329 -8 -5 -10 0 -6
17 14 55 20 179 9 179 -37 0 -117 -303 -166 -625 -33 -218 -65 -607 -67 -830
-1 -115 -1 -117 -49 160 -92 521 -216 1073 -335 1480 -57 197 -87 277 -104
283 -12 4 -13 -12 -7 -99 7 -120 23 -233 111 -789 162 -1030 228 -1545 315
-2454 5 -60 9 -126 9 -145 -1 -20 -10 41 -20 134 -81 747 -208 1484 -365 2110
-72 286 -159 565 -176 565 -7 0 -9 -25 -6 -72 6 -82 7 -84 -54 106 -24 77 -49
141 -56 144 -25 8 -14 -154 28 -428 11 -74 25 -164 30 -200 5 -36 19 -121 30
-190 26 -165 77 -489 89 -570 20 -134 61 -428 71 -505 6 -44 15 -109 20 -145
21 -155 31 -236 50 -405 11 -99 25 -216 30 -260 11 -89 25 -232 40 -405 5 -63
14 -164 20 -224 16 -173 25 -156 -79 -156 l-89 0 -6 83 c-3 45 -8 159 -11 252
-25 771 -153 1815 -311 2540 -71 327 -113 412 -99 206 7 -111 96 -1037 116
-1199 6 -52 8 -96 5 -100 -3 -3 -6 -1 -6 4 0 6 -13 89 -30 185 -57 334 -131
649 -153 649 -14 0 -3 -154 54 -715 27 -269 48 -499 48 -510 -1 -11 -14 66
-29 170 -46 315 -87 547 -133 765 l-25 115 19 205 c25 274 60 574 115 990 44
339 63 540 51 540 -23 0 -93 -211 -152 -455 -116 -481 -202 -1031 -259 -1660
-8 -88 -22 -180 -30 -204 -37 -103 -126 -541 -126 -618 0 -15 -2 -24 -5 -21
-6 5 10 295 40 733 36 530 17 596 -60 210 -36 -182 -77 -452 -96 -630 -6 -60
-12 -111 -13 -112 -1 -1 0 156 3 349 6 584 -31 984 -124 1351 -38 149 -62 214
-75 201 -5 -5 4 -131 20 -294 77 -747 61 -1370 -61 -2324 -16 -126 -31 -231
-33 -233 -2 -2 -4 166 -5 374 -3 823 -45 1968 -81 2213 -5 36 -10 71 -10 79 0
7 -6 11 -15 7 -11 -4 -15 2 -15 27 0 63 -30 464 -41 542 -50 374 -101 -321
-116 -1588 -3 -312 -8 -565 -10 -563 -3 2 -11 199 -19 438 -28 873 -60 1318
-94 1318 -49 0 -79 -734 -100 -2425 -6 -440 -10 -822 -10 -848 l0 -48 -87 3
-86 3 2 185 c1 149 9 232 36 425 64 453 98 745 120 1030 20 264 20 728 0 895
-19 160 -34 225 -49 209 -2 -2 -8 -134 -15 -293 -13 -335 -31 -546 -76 -881
l-32 -240 -8 120 c-8 130 -4 251 19 501 29 311 40 685 27 911 -16 282 -48 500
-71 477 -5 -5 -14 -151 -20 -324 -11 -277 -25 -468 -29 -388 -1 32 -16 45 -25
22 -10 -27 -27 -193 -35 -354 -6 -121 -8 -136 -10 -67 -3 199 -26 450 -53 572
-25 118 -35 79 -42 -174 -11 -366 -39 -725 -76 -991 -5 -36 -14 -101 -19 -145
-12 -90 -38 -270 -52 -360 -5 -33 -14 -91 -20 -130 -5 -38 -22 -144 -38 -235
l-27 -165 -7 390 c-18 1014 -123 1938 -311 2725 -54 230 -131 460 -152 460
-13 0 5 -194 50 -540 100 -761 144 -1230 178 -1895 14 -275 17 -1352 4 -1588
-7 -145 -10 -157 -27 -157 -19 0 -19 5 -12 108 4 59 8 451 8 872 0 783 -6 964
-50 1490 -50 594 -133 1189 -236 1690 -73 353 -183 751 -226 817 -42 64 -35
-39 41 -627 84 -638 178 -1541 163 -1556 -2 -2 -11 53 -21 124 -61 446 -168
969 -265 1303 -45 154 -84 249 -102 249 -20 0 -6 -151 67 -700 35 -265 38
-289 74 -615 58 -506 89 -911 115 -1505 13 -282 18 -720 8 -620 -13 131 -67
440 -107 618 -113 498 -318 951 -503 1108 -37 31 -84 68 -106 82 -25 17 -46
42 -58 70 -30 69 -137 250 -191 324 -52 70 -127 140 -217 201 -77 53 -101 49
-75 -12 19 -45 61 -112 136 -218 68 -96 196 -354 262 -531 145 -385 252 -894
317 -1508 16 -156 7 -173 -14 -24 -56 395 -160 800 -288 1122 -104 260 -254
509 -366 604 -126 107 -193 142 -193 101 0 -21 50 -109 128 -222 311 -454 519
-1223 592 -2185 20 -265 31 -543 22 -552 -5 -5 -53 -8 -106 -6 l-96 3 0 -257
0 -258 6130 0 6130 0 0 255 0 255 -165 0 c-125 0 -165 3 -165 13 -4 243 -42
968 -65 1232 -21 235 -20 244 29 744 56 561 60 617 47 625 -6 4 -18 -21 -30
-61 -23 -73 -83 -344 -102 -458 -13 -79 -28 -117 -29 -73 0 37 -65 422 -91
538 -26 120 -58 220 -70 220 -15 0 -10 -179 16 -566 51 -771 56 -879 40 -1005
-19 -158 -42 -388 -55 -554 -23 -294 -27 -336 -29 -270 -3 127 -41 587 -71
859 -14 126 -20 248 -20 410 0 127 -5 399 -10 605 -16 617 -40 884 -75 849
-17 -16 -65 -569 -65 -743 0 -43 -4 -75 -10 -75 -5 0 -10 5 -10 10 0 6 -4 10
-10 10 -6 0 -10 -47 -11 -117 -1 -65 -3 -109 -6 -98 -14 66 -47 165 -54 165
-15 0 -10 -174 18 -565 25 -358 27 -419 26 -1035 l-1 -655 -41 -3 -41 -3 0
523 c0 1162 -33 2074 -76 2117 -10 10 -22 -22 -30 -83 -5 -40 -9 -52 -12 -33
-2 15 -7 27 -12 27 -37 0 -71 -542 -106 -1670 -4 -124 -8 -220 -10 -215 -6 19
-73 561 -89 725 l-17 165 51 330 c28 182 73 474 100 650 90 569 92 713 8 450
-48 -148 -108 -371 -161 -595 l-44 -185 -7 99 c-12 152 1 877 19 1071 8 94 25
255 36 358 31 289 26 342 -20 219 -72 -192 -143 -598 -181 -1032 -18 -199 -18
-935 0 -1215 l13 -220 -26 -165 c-14 -91 -29 -183 -33 -205 l-7 -40 -7 50
c-23 145 -51 604 -56 910 -6 378 4 616 42 985 28 261 30 314 15 305 -7 -4 -8
18 -3 67 10 101 9 112 -2 117 -31 11 -112 -299 -159 -604 -35 -229 -65 -588
-67 -815 -1 -103 -3 -125 -10 -95 -20 90 -80 448 -94 554 -8 63 -18 117 -23
120 -5 3 -28 94 -51 201 -119 550 -279 1120 -313 1120 -15 0 -4 -181 22 -355
11 -77 49 -324 85 -550 153 -979 184 -1214 176 -1360 l-6 -110 -18 105 c-49
282 -122 631 -197 950 -29 124 -40 196 -45 290 -3 69 -11 168 -17 220 -19 163
-37 180 -58 53 l-12 -78 -23 68 c-12 37 -27 73 -35 80 -17 17 -7 -164 19 -337
17 -109 19 -148 11 -260 -8 -125 -24 -526 -38 -986 -7 -201 -8 -184 -15 285
-25 1641 -83 2248 -142 1470 -8 -110 -15 -230 -15 -267 0 -55 -3 -66 -14 -62
-11 4 -17 -5 -21 -33 -4 -21 -8 -49 -11 -63 -29 -172 -64 -1115 -82 -2170 l-7
-405 -32 265 c-83 677 -97 881 -98 1430 0 460 1 488 46 906 11 106 19 207 17
225 l-4 34 -22 -46 c-49 -103 -117 -443 -147 -734 -26 -247 -37 -554 -32 -835
3 -188 2 -243 -4 -190 -57 457 -139 890 -169 890 -15 0 -12 -125 14 -525 14
-203 27 -422 31 -485 3 -63 8 -133 12 -155 3 -22 3 -38 0 -35 -3 3 -15 66 -27
140 -26 162 -85 436 -110 505 -10 28 -21 86 -24 130 -36 459 -114 1020 -202
1449 -85 415 -191 767 -216 722 -11 -19 -2 -108 53 -526 49 -372 103 -853 120
-1055 11 -148 11 -152 -15 -275 -15 -69 -31 -145 -35 -170 -29 -161 -76 -448
-96 -580 -12 -85 -23 -144 -24 -132 0 13 21 247 48 520 47 465 57 590 52 652
-1 23 -2 24 -13 6 -24 -41 -80 -289 -138 -611 -21 -115 -39 -201 -39 -190 0
11 24 265 54 565 57 564 76 843 57 825 -17 -15 -57 -164 -100 -371 -162 -767
-278 -1755 -308 -2626 l-7 -198 -87 0 c-48 0 -89 2 -91 5 -3 2 -2 44 3 92 4
48 12 144 18 213 48 567 145 1342 260 2070 12 74 25 160 30 190 5 30 18 116
30 190 84 526 106 730 79 730 -12 0 -31 -44 -64 -148 -74 -239 -164 -585 -226
-872 l-34 -155 -7 75 c-23 236 -42 360 -57 360 -10 0 -21 -150 -21 -279 0
-105 -23 -450 -40 -601 -36 -328 -95 -721 -216 -1449 -64 -385 -77 -441 -100
-419 -2 3 22 178 55 389 116 744 168 1154 213 1659 18 201 18 943 0 1070 -17
121 -41 230 -51 230 -10 0 -21 -151 -21 -289 0 -233 -38 -691 -85 -1031 l-24
-175 5 180 c10 339 -38 867 -77 828 -4 -4 -11 -92 -14 -193 -10 -319 -49 -868
-70 -980 -3 -14 -14 -97 -25 -185 -19 -142 -88 -606 -110 -725 -7 -41 -8 -38
-9 35 -17 1016 -102 1882 -261 2651 -83 398 -188 744 -212 700 -11 -19 -2 -99
58 -563 102 -789 144 -1262 175 -1928 12 -270 13 -1288 1 -1525 l-7 -145 -30
0 -30 0 3 75 c1 41 7 188 12 325 21 552 10 1392 -25 1950 -76 1196 -272 2388
-511 3115 -72 220 -114 283 -114 173z m-1026 -2942 c96 -141 208 -378 185
-391 -8 -6 -10 -42 -7 -131 3 -85 1 -113 -5 -89 -27 107 -49 170 -57 170 -16
0 -12 -129 16 -520 24 -326 27 -438 31 -1053 l5 -688 -44 3 -43 3 -7 905 c-6
872 -16 1273 -38 1523 -18 211 -42 268 -59 143 -8 -57 -21 -87 -21 -48 0 46
-18 19 -29 -41 -24 -140 -64 -842 -76 -1352 -6 -257 -17 -480 -22 -455 -6 32
-65 504 -83 678 l-20 182 40 268 c22 147 62 409 89 582 28 173 53 339 57 368
8 63 6 64 88 -57z m436 -171 l58 -175 11 -185 c7 -102 14 -196 17 -210 12 -54
-9 -6 -51 116 -24 71 -59 165 -78 209 -33 77 -34 87 -41 245 -4 91 -9 188 -11
215 l-5 50 21 -45 c11 -25 47 -124 79 -220z m-5490 -88 c257 -509 405 -1265
427 -2185 l6 -258 -93 3 -94 3 2 55 c5 100 -17 682 -33 875 -49 621 -139 1119
-281 1553 -24 75 -44 138 -44 141 0 15 58 -83 110 -187z m5740 37 l49 -96 -13
-64 -14 -64 -12 49 c-7 26 -34 111 -60 189 -41 122 -44 137 -23 111 13 -16 46
-72 73 -125z m169 -403 c166 -485 256 -1089 278 -1849 l6 -228 -94 3 -94 3 -7
340 c-11 583 -58 1070 -149 1528 -26 135 -28 155 -19 240 5 50 10 103 10 117
1 38 13 12 69 -154z m2480 -745 c9 -396 -1 -1300 -15 -1322 -7 -12 -151 -11
-158 0 -14 23 43 881 94 1401 5 58 15 152 20 210 6 58 15 146 20 195 5 50 10
101 11 115 5 74 19 -228 28 -599z m-5179 344 c43 -443 50 -517 65 -700 8 -104
17 -219 20 -255 11 -137 35 -578 35 -647 l0 -73 -79 0 -78 0 -7 93 c-14 204
-19 1033 -7 1387 11 352 22 511 28 430 2 -19 12 -125 23 -235z m-1643 188 c-3
-10 -5 -4 -5 12 0 17 2 24 5 18 2 -7 2 -21 0 -30z m8087 -253 c69 -515 140
-1203 153 -1483 l6 -128 -89 3 -89 3 -6 665 c-4 366 -9 788 -13 939 -3 151 -4
272 -2 270 3 -2 20 -123 40 -269z m-4170 -75 c29 -138 59 -310 77 -440 10 -77
10 -120 -4 -275 -10 -102 -22 -252 -27 -334 -6 -82 -12 -152 -15 -154 -3 -3
-5 32 -5 77 0 78 -4 142 -31 451 -11 139 -34 369 -49 500 -5 47 -9 164 -9 260
l1 175 19 -70 c10 -38 30 -124 43 -190z m2663 -182 c-3 -10 -5 -2 -5 17 0 19
2 27 5 18 2 -10 2 -26 0 -35z m-4740 -15 c-3 -8 -6 -5 -6 6 -1 11 2 17 5 13 3
-3 4 -12 1 -19z m-474 -955 l6 -383 -21 0 c-21 0 -21 0 -14 293 6 264 16 482
21 475 1 -2 5 -175 8 -385z m5712 -146 l8 -239 -24 4 c-21 3 -24 8 -22 38 1
19 5 188 10 375 8 373 11 358 28 -178z m-3916 95 c26 -178 45 -325 42 -327 -4
-5 -101 -7 -102 -2 0 1 -8 54 -18 117 -17 112 -17 120 3 345 11 127 22 221 25
210 2 -11 25 -165 50 -343z m5756 15 c25 -175 45 -325 45 -333 0 -12 -12 -14
-52 -12 l-53 3 -17 115 c-17 111 -17 123 2 323 11 114 21 218 21 230 2 36 7 6
54 -326z m-8928 51 c-5 -126 -42 -376 -58 -392 -27 -29 -24 27 12 254 21 135
39 248 39 253 0 4 3 7 6 7 4 0 4 -55 1 -122z m2680 -15 c-3 -10 -5 -4 -5 12 0
17 2 24 5 18 2 -7 2 -21 0 -30z"/>
</g>
</svg>
