<?xml version="1.0" standalone="no"?>
<!DOCTYPE svg PUBLIC "-//W3C//DTD SVG 20010904//EN"
 "http://www.w3.org/TR/2001/REC-SVG-20010904/DTD/svg10.dtd">
<svg version="1.0" xmlns="http://www.w3.org/2000/svg"
 width="1280.000000pt" height="640.000000pt" viewBox="0 0 1280.000000 640.000000"
 preserveAspectRatio="xMidYMid meet">
<metadata>
Created by potrace 1.15, written by Peter Selinger 2001-2017
</metadata>
<g transform="translate(0.000000,640.000000) scale(0.100000,-0.100000)"
fill="#000000" stroke="none">
<path d="M6940 5223 c0 -27 21 -147 46 -268 116 -565 173 -877 209 -1150 8
-66 18 -131 21 -145 3 -14 3 -22 0 -19 -3 3 -24 68 -45 145 -70 245 -153 468
-224 598 -76 141 -77 63 -3 -304 82 -409 124 -673 171 -1065 31 -251 70 -964
48 -870 -2 11 -16 72 -30 135 -35 163 -114 394 -179 524 -58 115 -166 287
-203 320 -13 12 -21 31 -21 53 0 32 -14 45 -22 21 -3 -8 -26 6 -59 35 -30 26
-97 70 -149 97 -84 43 -101 57 -147 117 -28 37 -89 104 -135 149 -67 66 -103
91 -186 132 -100 50 -142 63 -142 43 0 -15 107 -137 140 -161 17 -12 55 -52
86 -90 l55 -68 -13 -116 c-6 -64 -14 -116 -18 -116 -3 0 -32 27 -65 61 -37 37
-92 78 -142 105 l-81 45 5 54 c7 69 -9 73 -39 10 -16 -33 -26 -44 -39 -40 -14
5 -16 -2 -16 -37 1 -29 -12 -74 -40 -138 -22 -52 -60 -151 -84 -220 l-44 -125
-8 75 c-12 108 -1 544 18 687 8 68 26 194 40 280 15 95 21 161 15 167 -29 29
-132 -249 -180 -483 -54 -265 -70 -679 -41 -1036 l14 -170 -28 -125 c-16 -69
-31 -129 -35 -133 -4 -4 -10 14 -14 40 -67 478 -71 830 -16 1188 29 183 36
270 22 261 -7 -4 -9 5 -4 31 9 56 8 92 -3 94 -15 2 -72 -116 -106 -221 -61
-188 -112 -501 -121 -750 l-3 -65 -19 75 c-104 422 -325 1055 -432 1237 -69
118 -58 -6 37 -407 188 -801 265 -1187 334 -1684 35 -247 30 -259 -10 -26 -71
415 -160 770 -282 1130 -94 279 -219 570 -244 570 -8 0 -10 -16 -6 -47 5 -46
3 -44 -42 52 -119 251 -110 104 29 -470 44 -182 65 -273 100 -435 67 -308 155
-795 189 -1045 6 -44 15 -112 21 -152 16 -112 22 -103 -79 -103 l-90 0 -5 53
c-3 28 -8 106 -11 172 -12 254 -66 655 -131 985 -62 310 -176 724 -240 868
-32 73 -48 61 -39 -32 6 -63 88 -631 115 -795 17 -101 5 -82 -25 41 -32 126
-105 358 -130 413 -28 57 -38 44 -31 -37 4 -40 29 -221 57 -402 51 -344 59
-419 29 -276 -45 215 -81 355 -134 528 l-34 112 24 168 c24 168 64 392 129
727 35 184 42 255 25 255 -27 0 -134 -245 -201 -463 -87 -285 -148 -559 -193
-877 -16 -113 -33 -190 -46 -218 -31 -63 -86 -235 -106 -329 -32 -150 -31
-138 32 525 18 189 12 226 -24 155 -37 -72 -110 -356 -142 -550 -6 -40 -13
-73 -13 -73 -1 0 -2 136 -2 303 0 331 -10 426 -65 648 -41 166 -111 333 -130
312 -5 -4 5 -93 21 -198 56 -372 61 -649 19 -1025 -22 -204 -99 -662 -112
-676 -3 -2 -6 112 -7 253 -4 580 -47 1333 -84 1479 -8 28 -18 48 -25 47 -7 -2
-12 7 -12 20 0 43 -30 302 -41 359 -19 93 -34 92 -54 -4 -29 -140 -52 -531
-62 -1058 -7 -396 -15 -430 -27 -115 -14 384 -50 793 -77 883 -53 171 -98
-353 -114 -1343 -3 -181 -8 -444 -11 -582 l-7 -253 -86 0 -86 0 6 142 c4 112
13 179 42 308 95 433 128 682 128 970 -1 183 -16 327 -43 384 -17 38 -28 32
-28 -16 -1 -193 -39 -526 -89 -768 l-28 -135 -8 89 c-8 95 -5 148 19 321 47
348 40 724 -17 889 -17 49 -37 59 -37 19 0 -143 -34 -534 -39 -450 -1 24 -20
21 -30 -6 -12 -30 -30 -184 -33 -267 -1 -57 -2 -59 -5 -15 -16 259 -53 458
-82 440 -5 -3 -12 -71 -16 -152 -17 -382 -69 -698 -203 -1243 l-28 -115 -7
260 c-15 589 -96 1126 -244 1620 -76 254 -184 505 -217 505 -15 0 0 -112 49
-360 153 -787 206 -1336 191 -1995 -8 -372 -13 -425 -38 -425 -17 0 -18 5 -11
67 4 38 8 302 8 588 -1 564 -11 723 -71 1134 -80 552 -229 1108 -380 1416 -53
109 -70 133 -85 118 -12 -12 -7 -48 62 -403 65 -340 113 -624 144 -858 26
-193 29 -259 5 -140 -67 344 -237 865 -330 1012 -70 110 -66 32 20 -394 82
-405 125 -693 175 -1165 26 -240 46 -797 24 -669 -15 93 -77 321 -114 420 -94
254 -214 454 -360 599 -76 77 -105 98 -185 138 -76 37 -101 55 -125 89 -98
141 -216 247 -346 310 -163 81 -170 57 -26 -91 126 -129 180 -196 251 -310
133 -215 236 -474 305 -766 27 -111 71 -371 70 -405 -1 -20 -2 -21 -6 -5 -102
461 -258 807 -474 1053 -90 102 -149 147 -263 203 -166 82 -168 63 -13 -99
129 -135 187 -210 264 -339 157 -267 270 -618 328 -1015 13 -93 45 -419 45
-470 0 -16 -12 -18 -105 -18 l-105 0 0 -170 0 -170 6130 0 6130 0 0 170 0 170
-164 0 -164 0 -6 83 c-16 261 -48 647 -61 742 -20 152 -20 170 21 435 53 351
65 463 54 474 -14 14 -52 -78 -101 -242 -22 -75 -43 -144 -46 -152 -3 -8 -14
21 -24 65 -51 223 -121 434 -146 443 -19 6 -17 -99 7 -328 11 -107 29 -295 40
-418 19 -218 19 -224 1 -325 -11 -56 -29 -176 -40 -267 -42 -332 -38 -310 -40
-259 0 25 -5 81 -11 125 -5 43 -17 136 -25 206 -9 70 -25 180 -35 245 -14 81
-20 167 -20 273 -1 199 -17 602 -30 751 -18 194 -46 266 -68 177 -15 -58 -40
-261 -48 -392 -6 -97 -9 -106 -25 -101 -17 6 -19 -1 -20 -77 l0 -83 -22 57
c-56 145 -61 71 -20 -307 24 -230 27 -285 27 -687 l1 -438 -42 0 -43 0 0 348
c0 412 -16 1003 -30 1157 -22 228 -47 305 -71 211 -10 -41 -13 -44 -24 -29
-12 16 -14 13 -23 -22 -32 -124 -82 -764 -93 -1194 -2 -53 -39 123 -85 391
l-26 158 22 102 c12 57 52 234 90 393 103 437 125 561 98 553 -26 -8 -152
-296 -227 -518 l-28 -85 -8 69 c-10 91 1 590 15 686 6 41 22 150 36 242 14 92
24 179 22 195 l-3 28 -26 -40 c-73 -113 -147 -379 -186 -669 -21 -155 -24
-639 -5 -846 l13 -145 -31 -135 c-17 -74 -33 -136 -34 -138 -15 -14 -58 421
-63 643 -6 255 4 408 42 658 27 174 30 211 15 202 -12 -7 -12 2 -1 67 11 64
-2 81 -28 37 -104 -170 -199 -610 -202 -932 0 -63 -3 -84 -9 -67 -18 53 -88
337 -95 380 -3 25 -12 55 -20 66 -8 12 -41 102 -73 200 -102 309 -264 694
-292 694 -16 0 -11 -85 11 -193 11 -56 49 -226 85 -377 155 -656 193 -851 185
-945 l-6 -70 -28 104 c-47 174 -126 429 -174 561 -37 101 -48 148 -59 245 -24
223 -44 270 -72 170 l-14 -48 -26 46 c-14 26 -29 47 -34 47 -15 0 -8 -79 16
-198 21 -99 23 -129 16 -197 -8 -73 -19 -275 -39 -660 -6 -130 -7 -116 -14
190 -13 571 -34 948 -62 1109 -24 136 -44 123 -69 -45 -9 -57 -19 -150 -22
-206 -5 -75 -10 -100 -20 -96 -14 5 -19 -9 -33 -92 -34 -202 -64 -741 -77
-1375 l-7 -325 -28 145 c-83 434 -103 628 -103 1000 0 294 2 327 28 490 38
247 42 285 26 275 -19 -12 -76 -142 -105 -240 -66 -229 -89 -420 -90 -744 0
-170 -3 -247 -8 -215 -43 262 -137 594 -168 594 -14 0 -11 -89 10 -295 11
-105 24 -251 31 -325 6 -74 13 -146 16 -160 3 -14 3 -22 -1 -18 -4 3 -16 46
-26 95 -21 93 -66 232 -104 323 -15 35 -32 113 -45 210 -29 204 -81 469 -130
655 -91 351 -236 713 -272 677 -10 -10 3 -95 62 -397 44 -222 104 -584 115
-686 6 -60 3 -79 -34 -200 -41 -134 -113 -425 -127 -509 -4 -25 -9 -40 -11
-34 -2 6 19 163 47 347 52 350 62 468 35 433 -22 -30 -73 -177 -125 -366 -27
-96 -49 -169 -49 -161 -1 7 24 178 54 380 31 201 58 409 61 461 6 94 5 95 -13
72 -51 -62 -180 -502 -252 -857 -78 -388 -127 -762 -147 -1127 l-7 -128 -88 0
c-106 0 -98 -22 -68 207 55 430 161 974 309 1586 90 374 114 517 91 532 -27
16 -162 -296 -281 -650 l-47 -140 -12 99 c-14 105 -37 196 -50 196 -10 0 -21
-99 -21 -185 0 -78 -25 -321 -46 -440 -31 -180 -86 -426 -181 -811 -84 -342
-100 -394 -116 -394 -13 0 -17 5 -13 18 10 34 116 500 145 637 45 214 88 453
112 625 27 196 37 570 20 719 -13 105 -45 231 -60 231 -11 0 -21 -87 -21 -185
0 -158 -40 -483 -85 -695 l-24 -115 5 120 c10 219 -35 555 -75 555 -5 0 -12
-48 -15 -107 -24 -450 -73 -764 -195 -1243 l-19 -75 -1 60 c-11 547 -82 1094
-201 1550 -90 349 -236 713 -272 677 -10 -10 12 -151 62 -397 143 -706 203
-1380 180 -2045 -5 -151 -9 -287 -10 -302 0 -25 -4 -28 -34 -28 -33 0 -35 1
-30 33 23 177 32 880 14 1193 -41 724 -166 1407 -365 1993 -104 308 -234 581
-276 581 -5 0 -9 -21 -9 -47z m-1056 -1925 c53 -48 133 -144 189 -227 28 -42
34 -58 25 -68 -7 -8 -9 -42 -6 -91 3 -43 2 -68 -3 -57 -53 132 -69 147 -69 63
0 -29 12 -161 27 -293 23 -212 26 -293 30 -697 l5 -458 -46 0 -46 0 0 448 c0
662 -22 1134 -57 1262 -14 51 -16 53 -29 35 -8 -10 -14 -29 -14 -41 0 -13 -4
-26 -10 -29 -5 -3 -10 -1 -10 4 0 26 -20 7 -30 -27 -24 -91 -61 -549 -79 -981
-6 -123 -12 -225 -14 -227 -4 -4 -70 345 -92 486 l-15 95 49 215 c63 274 145
630 147 630 0 0 22 -19 48 -42z m465 -143 c59 -119 59 -121 73 -257 7 -76 12
-138 11 -138 -2 0 -21 36 -43 80 -22 44 -58 108 -79 143 -36 60 -39 68 -45
173 -4 60 -9 123 -12 139 l-5 30 20 -25 c11 -14 47 -79 80 -145z m-5450 -115
c234 -342 364 -813 389 -1404 l7 -166 -96 0 c-96 0 -96 0 -92 24 9 43 -16 468
-37 632 -33 265 -86 503 -160 717 -41 120 -109 278 -142 332 -63 104 41 -4
131 -135z m5658 133 c91 -111 93 -115 81 -156 -11 -36 -28 -50 -28 -24 0 7
-24 61 -53 120 -29 59 -49 107 -46 107 4 0 25 -21 46 -47z m217 -333 c160
-317 251 -725 273 -1221 l6 -149 -96 0 -97 0 0 152 c0 247 -30 559 -76 788
-21 103 -70 296 -89 349 -13 38 -14 57 -4 125 14 93 15 93 83 -44z m-2650
-645 c36 -279 66 -586 66 -677 l0 -48 -79 0 -78 0 -6 63 c-23 224 -16 1077 10
1202 7 32 40 -175 87 -540z m5125 160 c7 -189 7 -384 1 -560 -5 -148 -9 -282
-10 -297 l0 -28 -86 0 -86 0 6 58 c3 31 8 91 11 132 21 266 47 491 105 880 16
113 30 210 31 215 6 39 19 -156 28 -400z m-6822 353 c-3 -8 -6 -5 -6 6 -1 11
2 17 5 13 3 -3 4 -12 1 -19z m8097 -223 c73 -378 146 -863 146 -975 l0 -40
-88 0 -89 0 -7 518 c-3 284 -9 567 -13 627 -3 61 -3 108 0 105 3 -3 26 -109
51 -235z m-4159 -70 c63 -223 71 -269 57 -362 -6 -43 -17 -127 -23 -188 -6
-60 -15 -128 -19 -150 -7 -38 -8 -37 -9 22 -1 34 -6 97 -11 140 -6 43 -15 116
-21 163 -6 47 -22 154 -35 238 -16 101 -24 193 -23 270 l0 117 20 -50 c12 -27
40 -117 64 -200z m2642 -47 c-3 -7 -5 -2 -5 12 0 14 2 19 5 13 2 -7 2 -19 0
-25z m-5214 -645 c6 -252 6 -253 -15 -253 -21 0 -21 2 -14 188 6 175 16 326
21 320 1 -2 5 -117 8 -255z m5716 -180 c1 -72 1 -73 -25 -73 -19 0 -24 4 -20
18 2 9 8 123 12 252 l8 235 12 -180 c7 -99 12 -213 13 -252z m-3923 161 c24
-115 46 -214 49 -222 4 -10 -8 -12 -52 -10 l-57 3 -16 71 c-15 66 -15 79 4
222 11 83 21 150 24 148 2 -3 24 -98 48 -212z m5758 -4 c25 -119 46 -219 46
-223 0 -4 -24 -7 -53 -7 l-54 0 -16 78 c-15 73 -15 84 3 212 11 74 19 141 20
149 0 34 11 -6 54 -209z m-8927 28 c-7 -117 -44 -258 -67 -258 -18 0 -16 8 55
318 11 48 18 18 12 -60z"/>
</g>
</svg>
