<svg xmlns="http://www.w3.org/2000/svg" viewBox="0 0 415.48 415.48"><circle cx="315.03" cy="280.91" r="66" fill="#edc148"/><g fill="#b3b3b3"><path d="M315.03 381.36c-25.73 0-51.47-9.8-71.06-29.39L97.6 205.61a6.5 6.5 0 1 1 9.19-9.2l146.36 146.37c34.12 34.11 89.63 34.11 123.74 0 34.12-34.12 34.12-89.63 0-123.74l-80.6-80.6a6.5 6.5 0 1 1 9.2-9.2l80.6 80.6c39.18 39.2 39.18 102.95 0 142.13a100.19 100.19 0 0 1-71.07 29.39zM276.5 115.95a6.48 6.48 0 0 1-4.6-1.9l-41.36-41.38a6.5 6.5 0 1 1 9.19-9.19l41.37 41.37a6.5 6.5 0 0 1-4.6 11.1zM45.7 97.62a6.48 6.48 0 0 1-4.6-1.9L1.9 56.52a6.5 6.5 0 1 1 9.2-9.2l39.2 39.2a6.5 6.5 0 0 1-4.6 11.1z"/><path d="M215.87 267.8a6.48 6.48 0 0 1-4.6-1.91L55.9 110.52a6.5 6.5 0 1 1 9.2-9.2L220.47 256.7a6.5 6.5 0 0 1-4.6 11.1zM207.91 180.3a6.48 6.48 0 0 1-4.6-1.91L120.6 95.66a6.5 6.5 0 1 1 9.2-9.2l82.72 82.74a6.5 6.5 0 0 1-4.6 11.1zM246.1 218.47a6.48 6.48 0 0 1-4.6-1.9l-18.03-18.03a6.5 6.5 0 1 1 9.2-9.2l18.02 18.04a6.5 6.5 0 0 1-4.6 11.1zM214.8 107.64a6.48 6.48 0 0 1-4.59-1.9L149.7 45.22a6.5 6.5 0 1 1 9.19-9.2l60.52 60.52a6.5 6.5 0 0 1-4.6 11.1zM295.42 188.25a6.48 6.48 0 0 1-4.6-1.9l-59.4-59.4a6.5 6.5 0 1 1 9.2-9.2l59.4 59.4a6.5 6.5 0 0 1-4.6 11.1z"/></g><circle cx="291.92" cy="262.98" r="12.75" fill="#b2863f"/><circle cx="343.67" cy="294.57" r="19.41" fill="#b2863f"/><path d="M288.92 312.98a6.08 6.08 0 0 1-2.48-.5 6.12 6.12 0 0 1-2.12-1.4 6.3 6.3 0 0 1-1.4-2.12 6.5 6.5 0 1 1 6 4.02zM335.42 254.48a6.55 6.55 0 0 1-6-4c-.17-.4-.3-.8-.37-1.23a6.53 6.53 0 0 1 5.1-7.64 6.48 6.48 0 1 1 1.27 12.87zM311.42 327.98a6.51 6.51 0 1 1 4.6-11.1 6.55 6.55 0 0 1-4.6 11.1z" fill="#b2863f"/></svg>